<?xml version="1.0" encoding="UTF-8" standalone="no"?>
<!-- Created with Inkscape (http://www.inkscape.org/) -->

<svg
   xmlns:dc="http://purl.org/dc/elements/1.1/"
   xmlns:cc="http://creativecommons.org/ns#"
   xmlns:rdf="http://www.w3.org/1999/02/22-rdf-syntax-ns#"
   xmlns:svg="http://www.w3.org/2000/svg"
   xmlns="http://www.w3.org/2000/svg"
   xmlns:sodipodi="http://sodipodi.sourceforge.net/DTD/sodipodi-0.dtd"
   xmlns:inkscape="http://www.inkscape.org/namespaces/inkscape"
   version="1.1"
   width="570"
   height="580"
   id="svg2837"
   xml:space="preserve"
   inkscape:version="0.47 r22583"
   sodipodi:docname="logo-new.svg"><metadata
     id="metadata9"><rdf:RDF><cc:Work
         rdf:about=""><dc:format>image/svg+xml</dc:format><dc:type
           rdf:resource="http://purl.org/dc/dcmitype/StillImage" /></cc:Work></rdf:RDF></metadata><sodipodi:namedview
     pagecolor="#ffffff"
     bordercolor="#666666"
     borderopacity="1"
     objecttolerance="10"
     gridtolerance="10"
     guidetolerance="10"
     inkscape:pageopacity="0"
     inkscape:pageshadow="2"
     inkscape:window-width="1280"
     inkscape:window-height="717"
     id="namedview7"
     showgrid="false"
     inkscape:zoom="0.82528732"
     inkscape:cx="432.23243"
     inkscape:cy="225.98169"
     inkscape:window-x="0"
     inkscape:window-y="0"
     inkscape:window-maximized="0"
     inkscape:current-layer="svg2837" /><defs
     id="defs2841"><inkscape:perspective
   sodipodi:type="inkscape:persp3d"
   inkscape:vp_x="0 : 526.25 : 1"
   inkscape:vp_y="0 : 1000 : 0"
   inkscape:vp_z="743.75 : 526.25 : 1"
   inkscape:persp3d-origin="371.875 : 350.83333 : 1"
   id="perspective11" /></defs><g
     transform="matrix(1.25,0,0,-1.25,-98,1050.5)"
     id="g2847"><g
       transform="matrix(0.1,0,0,0.1,-8,97.6)"
       id="g2849"><path
         d="m 2938.07,2828.95 c -295.79,28.88 -535.32,95.88 -787.95,220.39 -182.45,89.93 -318.43,178.29 -442.44,287.52 -97.99,86.31 -280,269.61 -321.81,324.09 -25.23,32.87 -48.35,62.01 -51.38,64.75 -33.19,30.05 -152.92,234.23 -219.08,373.6 -143.949,303.27 -206.691,568.31 -216.867,916.09 -8.926,305.05 42.75,630.39 141.247,889.29 37.21,97.8 150.74,332.44 183.18,378.59 10.72,15.26 35.32,52.39 54.67,82.53 176.41,274.84 420.45,507.02 713.98,679.31 219.78,129.01 393.68,201 647.57,268.08 249.14,65.82 655.5,75.93 946.45,23.53 230.69,-41.54 526.5,-149.93 710.82,-260.46 177.72,-106.57 208.53,-127.94 343.43,-238.14 322.44,-263.39 598.8,-699.49 697.59,-1100.78 52.59,-213.66 65.17,-328.82 65.2,-596.94 0.03,-273.52 -15.05,-409.15 -68.35,-614.52 -74.26,-286.13 -235.47,-618.83 -401.85,-829.35 -82.9,-104.89 -279.25,-300.56 -395.14,-393.76 -298.28,-239.92 -677.8,-402.83 -1066.27,-457.71 -133.19,-18.82 -417.34,-27.41 -533,-16.11 z m 413.65,29.45 c 446.67,36.97 892.33,230.6 1239.39,538.49 192.1,170.42 352.8,353.8 439.69,501.76 18.86,32.11 42.72,72.46 53.02,89.67 32.39,54.11 124.81,261.86 161.17,362.32 118.63,327.72 160.41,720.22 114.83,1078.67 -19.63,154.39 -26.59,191.5 -64.58,344.87 -17.15,69.24 -62.03,187.43 -107.36,282.78 -16.93,35.61 -39.81,84.93 -50.84,109.59 -48.15,107.69 -210.29,333.94 -336.29,469.25 -230.45,247.48 -533.37,449.88 -851.47,568.91 -124.15,46.46 -356.63,105.06 -488.17,123.04 -266.9,36.5 -592.13,15.82 -856.79,-54.46 -411.68,-109.34 -805.24,-342.68 -1076.35,-638.16 -87.66,-95.54 -98.11,-107.79 -127.77,-149.78 -281.72,-398.83 -392.85,-668.9 -455.048,-1105.85 -19.035,-133.71 -21.222,-181.15 -16.308,-353.67 10.117,-355.04 64.179,-589.94 206.356,-896.64 128.88,-278.01 322.14,-530.53 572.48,-748.01 300.03,-260.64 647.57,-426.93 1051.06,-502.88 138.64,-26.1 408.61,-35.16 592.98,-19.9 z m -488.37,65.43 c -521.81,73.63 -923.7,284.34 -1311.67,687.67 -140.06,145.61 -254.89,317.05 -350.08,522.67 -154.79,334.37 -207.362,570.25 -208.741,936.49 -2.109,562.16 146.661,985.46 511.201,1454.54 49.67,63.92 233.01,238.28 318.43,302.84 81.39,61.51 308.68,205.26 324.55,205.26 2.91,0 44.23,19.47 91.81,43.28 47.58,23.8 115.34,53.22 150.56,65.36 35.23,12.14 71.63,26.13 80.89,31.09 33.99,18.19 263.77,71.27 389.76,90.03 168.24,25.06 466.67,26.81 611.01,3.6 378.84,-60.93 684.17,-183.82 996.26,-400.96 96.03,-66.81 132.45,-98.44 248.39,-215.66 210.13,-212.46 371.01,-462.91 475.07,-739.56 148.6,-395.07 172.5,-919.79 61.62,-1352.9 -69.44,-271.23 -250.07,-645.63 -398.96,-826.9 -73.17,-89.09 -271.72,-281.02 -375.17,-362.65 -72.28,-57.04 -191.36,-140.46 -200.5,-140.46 -2.11,0 -20.84,-11.62 -41.64,-25.82 -44.02,-30.08 -208.41,-109.98 -301.81,-146.7 -144.06,-56.64 -254.63,-87.55 -423.41,-118.34 -144.91,-26.43 -501.29,-33.52 -647.57,-12.88 z m 602.74,29.75 c 257.98,40.44 562.9,152.2 770.41,282.38 189.18,118.68 430.67,326.2 560.2,481.39 245.09,293.64 413.78,681.08 478.63,1099.26 22.45,144.78 22.81,493.48 0.66,643 -55.88,377.22 -182.29,671.3 -428.5,996.84 -59.04,78.05 -146.03,169.01 -256.68,268.39 -110.51,99.24 -144.68,125.11 -262.95,199.09 -505.16,315.96 -1093.21,414.59 -1658.47,278.14 -126.76,-30.6 -155.64,-39.41 -269.3,-82.24 -159.17,-59.96 -396.04,-189.15 -534.31,-291.41 -176.3,-130.38 -384.37,-360.17 -527.12,-582.17 -99.21,-154.27 -196.04,-376.74 -244.98,-562.89 -120.575,-458.49 -102.817,-937.15 50.05,-1349.29 73.56,-198.31 205.5,-436.28 324.01,-584.41 85.71,-107.11 301.74,-314.08 421.06,-403.36 279.17,-208.92 610.58,-346.77 942.84,-392.18 61.27,-8.37 122.62,-16.9 136.32,-18.94 61.65,-9.23 402.08,3.35 498.13,18.4 z m -433.56,125.72 c -258.99,13.32 -495.55,72.39 -719.98,179.79 -111.71,53.46 -263.23,142.45 -319.94,187.91 -19.72,15.8 -73.97,58.71 -120.54,95.35 -173.21,136.27 -291.41,271.07 -413.72,471.83 -147.03,241.33 -237.28,487.81 -279.23,762.58 -26.16,171.28 -24.46,463.47 3.67,629.72 52.86,312.55 110.49,474.35 267.5,751.14 26.74,47.14 61.97,102.85 78.29,123.8 260.44,334.47 471.52,510.15 776.94,646.68 192.62,86.1 356.78,135.56 567.79,171.04 136.4,22.93 450.84,23.32 587.8,0.72 262.94,-43.39 526.33,-134.37 737.23,-254.66 249.75,-142.45 535.68,-425.27 675.63,-668.27 152.9,-265.5 220.91,-461.47 261.2,-752.6 19.07,-137.78 16.01,-510.24 -5.11,-622.66 -44.94,-239.17 -89.91,-386.43 -168.61,-552.08 -22.45,-47.25 -40.82,-87.7 -40.82,-89.88 0,-2.17 -24.44,-47.11 -54.32,-99.87 -129.65,-228.93 -273.9,-388.65 -528.49,-585.14 -265.7,-205.07 -593.09,-339.49 -926.53,-380.41 -163.34,-20.05 -229.36,-22.67 -378.76,-14.99 z m 418.61,43.5 c 322.12,54.67 603.65,176.36 861.77,372.5 175.22,133.15 317.87,270.75 392.45,378.58 21.32,30.83 51,71.75 65.96,90.92 14.95,19.18 41.41,61.77 58.8,94.65 17.38,32.88 40.3,75.47 50.93,94.64 204.95,369.63 287.51,851.8 222.61,1300.13 -19.19,132.6 -73.77,344.22 -94.94,368.12 -4.61,5.2 -8.38,17.23 -8.38,26.72 0,20.86 -111.81,245.43 -170.47,342.4 -38.36,63.4 -89.67,128.45 -233.02,295.44 -49.77,57.97 -146.26,143.18 -259.03,228.74 -183.51,139.23 -436.21,255.82 -687.9,317.39 -192.06,46.97 -299.65,60.4 -483.1,60.29 -253.79,-0.16 -433.3,-32.68 -706.96,-128.1 -72.99,-25.45 -239.56,-104.31 -313.82,-148.56 -74.87,-44.63 -233.95,-163.32 -293.6,-219.06 -24.82,-23.19 -47.84,-42.25 -51.14,-42.34 -6.05,-0.17 -136.39,-148.79 -215.96,-246.22 -47.65,-58.35 -144.17,-217.24 -202.71,-333.69 -158.71,-315.73 -231.34,-767.23 -183.67,-1141.77 16.64,-130.76 64.86,-335.97 103.69,-441.3 51.6,-139.96 172.23,-367.65 244.13,-460.79 16.26,-21.06 40.44,-54.32 53.73,-73.9 94.78,-139.67 344.74,-357.09 560.47,-487.5 243.77,-147.37 500.84,-231.33 811.96,-265.2 82.29,-8.95 387.22,2.46 478.2,17.91 z m -453.3,11.83 c 0,3.68 6.61,13.98 14.67,22.89 8.07,8.92 36.83,69.8 63.92,135.28 41.91,101.34 52.78,119.52 73.03,122.04 21.91,2.73 27.2,-6.33 66.99,-114.57 23.75,-64.64 52.32,-127.62 63.47,-139.95 l 20.28,-22.41 -25.25,0 c -13.9,0 -46.06,-2.86 -71.48,-6.34 -37.86,-5.19 -46.22,-3.54 -46.22,9.13 0,8.51 5.52,17.31 12.28,19.57 9.09,3.02 5.85,23.96 -12.45,80.37 -13.61,41.95 -26.98,76.33 -29.72,76.4 -7.74,0.2 -59.94,-132.14 -59.85,-151.74 0.04,-9.59 4.82,-17.43 10.62,-17.43 5.81,0 7.78,-4.48 4.4,-9.96 -6.79,-10.98 -84.69,-14 -84.69,-3.28 z m -249.06,37.55 c -31.45,11.58 -34.59,16.14 -32.02,46.43 4.96,58.53 34.2,65.28 45.17,10.43 6.26,-31.29 28.71,-45.18 57.99,-35.9 32.11,10.2 20.99,41.74 -26.16,74.18 -24.58,16.91 -49.23,39.24 -54.8,49.63 -17.18,32.12 -11.46,77.3 13.45,106.26 20.07,23.33 30.91,27.27 73.23,26.63 27.32,-0.41 66.14,-8.55 86.25,-18.1 34.62,-16.43 36.23,-19.29 30.07,-53.48 -8.14,-45.16 -11.53,-51.06 -29.39,-51.06 -8.29,0 -14.35,9.57 -14.35,22.69 0,52.33 -59.65,88.2 -88.62,53.29 -16.22,-19.55 -4.23,-42.5 34.82,-66.64 45.89,-28.36 63.76,-56.53 63.76,-100.5 0,-67.97 -70.99,-96.4 -159.4,-63.86 z m 627.65,29.2 c 0,54.49 11,57.77 50.81,15.15 23.55,-25.2 34.02,-29.76 56.3,-24.53 36.3,8.53 72.21,50.06 72.21,83.51 0,82.8 -42.31,141.35 -102.15,141.35 -38.68,0 -38.87,-0.19 -31.96,-32.38 8.89,-41.47 12.61,-47.32 30.09,-47.32 28.89,0 13.31,-19.43 -23,-28.69 -76.82,-19.59 -102.12,-22.7 -102.12,-12.54 0,5.59 4.84,13.16 10.75,16.81 6.82,4.22 8.35,24.08 4.19,54.37 l -6.57,47.72 55.97,20.94 c 108.65,40.65 188.36,21.04 225.39,-55.45 16.54,-34.16 20.2,-54.97 15.61,-88.52 -12.33,-89.91 -59.72,-125.19 -177.31,-132 l -78.21,-4.53 0,46.11 z m -919.06,58.44 c -101.28,41.99 -111.68,53.63 -83.01,92.85 7.78,10.63 15.62,17.09 17.44,14.36 1.82,-2.73 10.03,-17.97 18.25,-33.86 8.22,-15.89 19.43,-28.78 24.91,-28.63 5.47,0.14 27.72,43.61 49.44,96.58 34.18,83.39 37.77,99.07 26.71,116.77 -19.64,31.45 -7.48,33.01 56.8,7.3 56.96,-22.8 78.36,-43.51 45.07,-43.63 -22.52,-0.08 -100.39,-201.11 -84.18,-217.32 8.44,-8.45 15.66,-8.2 28.47,0.98 46.41,33.24 60.73,27.33 42.2,-17.4 -7.09,-17.12 -19.54,-29.79 -28.74,-29.24 -8.92,0.53 -59.93,19.09 -113.36,41.24 z m 1273.51,-24.78 c 4.34,9.59 9.71,81 11.94,158.69 5.34,185.88 6.86,186.5 131.86,53.91 52.13,-55.28 102.57,-100.52 112.09,-100.52 34.08,0 16.33,-20.6 -38.73,-44.96 -60.08,-26.56 -83.45,-30.71 -83.45,-14.82 0,5.48 4.49,9.97 9.97,9.97 21.61,0 7.06,27.57 -44.69,84.68 l -54.16,59.78 -0.39,-87.18 c -0.36,-80.66 1.1,-87.17 19.54,-87.17 31.37,0 23.29,-19.53 -14.63,-35.38 -46.31,-19.35 -59.12,-18.57 -49.35,3 z m -1586.72,188.1 c -3.43,8.94 3.33,70.58 15.02,136.99 11.68,66.41 18.59,130.83 15.34,143.16 -3.24,12.32 -3.07,22.41 0.39,22.41 18,0 115.59,-63.63 115.59,-75.36 0,-7.73 -6.16,-11.31 -14.18,-8.23 -7.94,3.04 -18.7,-3 -24.44,-13.72 -22.77,-42.55 51.92,-90.14 88.93,-56.66 9.94,9 15.66,22.67 12.71,30.38 -6.99,18.21 10.38,17.77 47.06,-1.2 32.67,-16.89 38.76,-34.57 11.96,-34.7 -15.19,-0.07 -123.75,-72.33 -206.82,-137.68 -32.76,-25.78 -53.06,-27.55 -61.56,-5.39 z m 118.91,91.39 c 13.2,11.34 14.7,18.18 6.25,28.38 -14.02,16.89 -38.55,17.5 -38.73,0.97 -0.09,-6.84 -3.03,-23.24 -6.55,-36.42 -6.87,-25.67 2.98,-23.88 39.03,7.07 z m 1876.25,-78.96 c -2.98,4.82 -20.05,16.19 -37.95,25.28 -17.9,9.09 -63.29,36.21 -100.86,60.26 -37.58,24.06 -74.12,41.52 -81.19,38.8 -7.07,-2.71 -15.46,-0.72 -18.64,4.43 -7.48,12.09 101.56,93.93 114.49,85.94 6.11,-3.78 5.07,-11.75 -2.77,-21.19 -10.34,-12.46 -9.21,-17.58 6.4,-29 26.31,-19.23 39.75,-17.47 70.91,9.34 21.78,18.73 25.66,28.42 20.15,50.37 -5.37,21.37 -11.02,25.85 -26.42,20.97 -28.39,-9.02 -24.33,11.83 7.81,40.11 38.62,34 52.3,31.26 52.3,-10.49 0,-19.37 11.51,-86.56 25.58,-149.29 14.08,-62.73 22.78,-118.6 19.34,-124.17 -7.67,-12.41 -41.74,-13.35 -49.15,-1.36 z m -6.43,123.19 c -5.1,17.78 -9.27,33.62 -9.27,35.22 0,1.6 -8.96,-1.89 -19.92,-7.75 -27.08,-14.5 -25.04,-26.48 7.47,-44.12 15.07,-8.18 28.21,-15.04 29.19,-15.26 0.99,-0.22 -2.37,14.14 -7.47,31.91 z m -1214.75,-97.1 c -95.27,12.4 -122.17,18.67 -259.03,60.34 -179.01,54.5 -372.59,151.26 -497.88,248.87 -107.88,84.05 -263.12,247.38 -325.28,342.25 -82.61,126.08 -110.53,173.25 -150.37,254.05 -69.28,140.49 -119.51,305.25 -143.09,469.37 -17.15,119.32 -17.58,406.56 -0.77,513.07 74.25,470.49 296.13,839.01 669.16,1111.4 122.42,89.4 118.36,86.91 229.06,140.11 154.8,74.4 263.51,112.93 378.58,134.15 233.3,43.03 388.26,48.25 572.85,19.29 207.96,-32.62 318.32,-67.21 508.09,-159.24 348.99,-169.25 650.08,-504.28 783.75,-872.11 156.08,-429.48 124.25,-963.25 -81.39,-1364.95 -48.82,-95.36 -173.52,-291.31 -218.68,-343.64 -67.89,-78.66 -204.18,-209.37 -264.5,-253.69 -68.45,-50.28 -223.89,-144.82 -238.12,-144.82 -3.98,0 -31.45,-11.07 -61.04,-24.61 -54.25,-24.81 -182.52,-69.36 -283.68,-98.52 -147.55,-42.54 -423.8,-56.55 -617.66,-31.32 z m 443.34,30.04 c 137.34,23.15 178.93,33.68 317.06,80.3 345.47,116.61 618.1,343.64 826.91,688.6 54.88,90.67 130.16,247.82 154.19,321.89 159.97,493.04 104.84,1010.51 -150.23,1410.22 -114.24,179.02 -227.18,299.04 -409.64,435.29 -308.22,230.16 -679.43,336.84 -1065.41,306.16 -188.04,-14.93 -318.19,-48.85 -524.61,-136.71 -139.64,-59.45 -236.11,-123.32 -408.54,-270.53 -76.01,-64.89 -112.02,-103.94 -208.64,-226.24 -242.3,-306.71 -364.65,-724.77 -331.12,-1131.41 22.95,-278.35 91.05,-494.04 224.35,-710.57 151.36,-245.83 328.98,-429.65 530.08,-548.54 193.95,-114.67 383.66,-182.95 607.24,-218.55 113.29,-18.04 331.02,-17.99 438.36,0.09 z m -498.13,69.16 c -190.89,36.42 -304.73,75.22 -458.28,156.18 -243.42,128.34 -470.19,365.19 -622.46,650.16 -196.25,367.28 -224.33,868.06 -72.68,1296.23 64.2,181.26 122.16,282.46 258.13,450.79 91.6,113.39 234.22,244.35 328.58,301.73 21.28,12.93 40.93,26.37 43.67,29.85 10.75,13.65 132.54,79.96 206.23,112.28 238.59,104.64 566.56,149.4 819.92,111.89 269.61,-39.91 434.68,-99.8 632.63,-229.52 75.92,-49.75 212.89,-153.45 249.63,-189 37.14,-35.92 180.76,-216.74 218.53,-275.12 126.61,-195.72 203.68,-436.69 225.85,-706.13 10.72,-130.27 10.1,-169.91 -4.93,-311.39 -23.62,-222.37 -65.38,-374.4 -148.56,-540.7 -166.9,-333.69 -404.2,-583.1 -684.02,-718.93 -143.25,-69.53 -174.52,-81.25 -304.82,-114.2 -217.06,-54.9 -478.14,-64.06 -687.42,-24.12 z m 483.19,16.46 c 315.5,37.69 606.33,177.42 834.37,400.89 39.72,38.93 72.23,74.81 72.23,79.75 0,4.93 -14.57,5.88 -32.38,2.11 -143,-30.26 -474.77,-84.08 -525.53,-85.26 -8.22,-0.19 -21.35,-4.4 -29.19,-9.36 -11.53,-7.3 -6.12,-19.79 28.32,-65.4 50.72,-67.19 63.16,-103.21 46.9,-135.87 -20.61,-41.4 -51.12,-46.82 -584.01,-103.77 -143.43,-15.33 -185.77,-17.53 -177.48,-9.24 2.84,2.85 45.06,9.3 93.82,14.35 396.12,40.97 587.29,67.32 623.23,85.91 19.35,10.01 28.3,22.31 28.3,38.93 0,50.95 -17.28,51.15 -418.43,4.84 -95.89,-11.08 -228.01,-25.63 -293.59,-32.36 l -119.25,-12.23 -0.31,-47.2 c -0.32,-49.87 5.61,-56.46 52.82,-58.64 14.62,-0.68 -1.38,-5.24 -35.55,-10.15 l -62.13,-8.91 -37.5,41.67 c -20.62,22.92 -42.98,47.22 -49.68,54 -6.71,6.78 -43.88,49.76 -82.59,95.5 l -70.39,83.17 42.73,6.31 c 23.5,3.47 98.77,11.8 167.27,18.52 127.62,12.53 159.4,24.52 159.4,60.17 0,46.04 -73.52,54.33 -318.81,35.91 -79.35,-5.95 -111.5,-5.41 -104.6,1.78 11.99,12.49 109.63,20.4 261.52,21.19 61.64,0.32 112.08,4.52 112.08,9.33 0,16.12 -159.25,210.42 -172.46,210.42 -23.2,0 -43.19,-23.98 -55.11,-66.1 -12.49,-44.15 -27.66,-53.06 -90.83,-53.31 -28.47,-0.11 -42.74,8.55 -82.19,49.91 -26.25,27.53 -47.72,55.55 -47.7,62.27 0.06,16.15 39.54,80.57 45.65,74.46 2.62,-2.62 24.92,-0.99 49.57,3.61 46.38,8.67 93.18,35.81 93.73,54.37 0.28,9.56 -92.24,43.93 -160.65,59.68 -14.55,3.35 -28.69,14.68 -31.44,25.17 -4.02,15.35 -14.05,19.08 -51.34,19.08 -28.37,0 -43.96,3.87 -40.2,9.97 7.99,12.92 56.08,12.76 90.44,-0.3 26.82,-10.19 26.78,-10.03 -6.82,27.46 -18.59,20.75 -44.66,61.23 -57.92,89.96 -24.5,53.07 -37.12,61.74 -58.57,40.29 -16.63,-16.63 -14.95,-37.86 2.98,-37.86 8.22,0 14.95,-4.48 14.95,-9.96 0,-16.17 -37.74,-11.45 -79.7,9.96 -49.16,25.08 -65.03,24.99 -98.05,-0.56 -14.57,-11.27 -41.75,-30.32 -60.42,-42.34 -49.72,-32.02 -57.77,-49.51 -37.24,-80.83 l 17.11,-26.12 41.98,24.35 c 23.08,13.39 67.59,30.95 98.9,39.02 48.66,12.53 58.6,12.64 68.47,0.76 6.34,-7.65 17.45,-13.91 24.67,-13.91 13.91,0 29.35,-18.17 21.83,-25.7 -2.45,-2.44 -21.07,2.49 -41.38,10.98 -42.52,17.77 -87.76,12.41 -134.32,-15.91 -37.47,-22.78 -40.04,-39.11 -6.16,-39.11 13.7,0 24.91,-4.48 24.91,-9.96 0,-5.48 -11.31,-9.96 -25.12,-9.96 -17.85,0 -28.61,-7.94 -37.16,-27.4 -16.38,-37.29 -25.15,-42.01 -78.32,-42.19 -36.2,-0.12 -53.94,6.2 -83.56,29.74 -46.21,36.72 -62.67,38.4 -40.19,4.1 31.94,-48.75 237.23,-308 278.17,-351.28 l 40.97,-43.32 74.72,5.85 c 50.11,3.93 69.8,2.66 59.78,-3.85 -8.22,-5.33 -32.88,-9.84 -54.8,-10.01 -52.49,-0.4 -61.34,-7.54 -66.61,-53.71 -3.59,-31.32 -0.96,-39.69 13.65,-43.51 28.79,-7.52 20.97,-22.33 -11.79,-22.33 -38.4,0 -37.68,-8.73 3.39,-41.5 98.41,-78.52 347.43,-193.78 482.69,-223.42 234.12,-51.29 364.18,-58.67 579.92,-32.9 z m -891.66,317.62 c 49.32,3.67 98.63,3.25 109.59,-0.95 10.96,-4.19 -29.39,-7.2 -89.67,-6.68 l -109.58,0.95 89.66,6.68 z m -22.22,116.62 c 9.69,2.53 23.14,2.36 29.88,-0.37 6.75,-2.73 -1.18,-4.8 -17.62,-4.59 -16.44,0.2 -21.96,2.44 -12.26,4.96 z m -58.25,121.59 c -22.93,42.68 -45.57,49.33 -73.34,21.56 -24.33,-24.33 -30.5,-25.55 -30.5,-6.01 0,7.98 -17.94,33.38 -39.87,56.43 -21.93,23.05 -38.04,43.74 -35.8,45.98 2.24,2.23 21.05,-0.63 41.8,-6.36 20.75,-5.73 40.23,-7.89 43.27,-4.81 7.59,7.67 -50.63,53.35 -69.17,54.28 -9.8,0.49 -8.09,3.51 4.98,8.77 10.95,4.4 33.88,5.85 50.93,3.2 17.06,-2.65 40.67,0.35 52.47,6.66 19.4,10.38 22.02,8.63 27.42,-18.33 3.28,-16.4 14.76,-37.78 25.51,-47.5 18.72,-16.95 20.86,-16.94 51.01,0.37 31.19,17.9 31.6,17.86 46.43,-5.24 8.23,-12.81 27.47,-35.29 42.74,-49.95 32.36,-31.04 23,-42.52 -21.9,-26.87 -44.44,15.49 -50.64,2.19 -12.79,-27.43 17.64,-13.8 32.08,-28.79 32.08,-33.29 0,-4.52 -26.13,-7.96 -58.06,-7.66 -56.18,0.53 -58.68,1.71 -77.21,36.2 z m 69.61,-10.39 c 2.9,4.68 -5.81,18.91 -19.33,31.62 -32.53,30.57 -31.05,41.74 5.04,37.96 30.32,-3.18 33.75,0.51 24.03,25.84 -4.22,11.01 -11.47,12.23 -30.26,5.09 -43.47,-16.53 -60.82,-10.77 -84.11,27.96 -12.35,20.55 -23.63,38.93 -25.05,40.85 -1.43,1.92 -7.45,0.48 -13.4,-3.19 -7.18,-4.44 -4.07,-16.14 9.3,-34.91 26.42,-37.11 25.63,-40.11 -10.61,-40.11 -49.84,0 -28.86,-24.49 23.93,-27.94 39.54,-2.58 50.35,-8.14 72.64,-37.36 26.55,-34.82 38.33,-41.18 47.82,-25.81 z m -218.28,320.25 c 3.38,5.48 19.34,9.96 35.46,9.96 16.11,0 29.3,-4.48 29.3,-9.96 0,-5.48 -15.96,-9.96 -35.46,-9.96 -21.1,0 -32.97,4.03 -29.3,9.96 z m 139.48,9.96 c 3.38,5.48 28.31,9.97 55.38,9.97 27.07,0 49.22,-4.49 49.22,-9.97 0,-5.47 -24.92,-9.96 -55.38,-9.96 -34.38,0 -53.05,3.78 -49.22,9.96 z m 507.33,-771.59 c 6.9,27.47 -1.1,41.4 -86.96,151.42 -44.85,57.47 -51.59,62.27 -87.54,62.27 -21.41,0 -38.94,-3.7 -38.94,-8.23 0,-10.52 191.09,-230.88 200.21,-230.88 3.77,0 9.72,11.44 13.23,25.42 z m 247.24,109.01 c 190.99,21.4 286.59,32.54 523.14,60.96 23.28,2.8 42.34,7.37 42.34,10.15 0,2.79 -13.95,25.34 -30.99,50.11 l -30.99,45.03 -67.37,-6.76 -67.37,-6.77 -124.75,155.07 c -195.99,243.63 -198.61,246.3 -235.21,238.98 -17.11,-3.43 -31.12,-10.92 -31.12,-16.65 0,-5.73 -7.42,-18.62 -16.49,-28.64 -20.49,-22.65 -61.24,-22.43 -132.12,0.72 -55.34,18.07 -120.45,14.86 -142.33,-7.02 -12.3,-12.3 2.94,-35.39 114.45,-173.3 70.84,-87.59 77.84,-100.15 75,-134.49 -2.79,-33.94 -6.99,-39.15 -40.38,-50.05 -39.61,-12.93 -91.54,-20.83 -144.55,-21.99 -18.93,-0.42 -32.35,-5.88 -32.31,-13.17 0.12,-19.23 89.42,-127.02 105.24,-127.02 7.72,0 113.83,11.18 235.81,24.84 z m 97.23,117.49 c 0,28.04 -28,56.91 -48.25,49.76 -9.08,-3.21 -25,-12.99 -35.39,-21.75 -15.96,-13.44 -19.66,-13.71 -23.84,-1.7 -2.72,7.81 -22.89,33.69 -44.83,57.49 -21.94,23.8 -37.04,46.12 -33.56,49.6 3.48,3.49 24.28,-0.72 46.21,-9.33 70.68,-27.77 59.71,1.25 -18.74,49.6 l -35.87,22.11 54.8,0.45 c 30.13,0.25 63.75,2.77 74.72,5.62 15.88,4.13 23.31,-2.98 36.62,-35 13.45,-32.39 21.73,-40.19 42.65,-40.19 14.28,0 28.54,6.73 31.69,14.95 6.43,16.74 33.49,20.59 33.49,4.76 0,-5.61 18.59,-30.36 41.31,-55 22.72,-24.65 39.11,-47.01 36.42,-49.7 -2.68,-2.69 -23.86,1.81 -47.06,10 -52.95,18.68 -51.34,1.47 3.21,-34.32 42.58,-27.93 43.99,-26.93 -46.33,-33.18 -62.73,-4.34 -67.25,-3.27 -67.25,15.83 z m 39.86,41.98 -33.8,34.87 37.55,0 c 30.02,0 36.9,3.41 34.28,16.98 -2.65,13.77 -12.79,16.47 -53.61,14.31 -48.52,-2.58 -51.03,-1.39 -69.46,32.83 -10.52,19.53 -24.83,35.51 -31.8,35.51 -18.47,0 -15.83,-8.34 13.76,-43.4 l 26.45,-31.32 -41.13,-3.05 c -36.83,-2.73 -39.95,-4.93 -29.9,-21.02 9.54,-15.27 17.34,-16.59 52,-8.8 37.88,8.51 42.37,7.17 63.19,-18.84 12.32,-15.39 22.42,-31.36 22.45,-35.47 0.03,-4.1 9.9,-7.47 21.93,-7.47 20.26,0 19.38,2.58 -11.91,34.87 z m -1006.34,-30.02 c 18.8,22.65 5.12,54.9 -47.04,110.9 -26.12,28.04 -94.57,112.05 -152.11,186.67 -57.53,74.63 -108.06,135.74 -112.29,135.81 -4.22,0.07 -12.63,-10.72 -18.67,-23.98 -10.14,-22.25 1.19,-39.51 147.16,-224.13 86.98,-110 160.96,-200.03 164.4,-200.05 3.44,-0.02 11.79,6.64 18.55,14.78 z m -79.59,12.69 c 0,4.17 -10.14,18.74 -22.52,32.38 -12.39,13.64 -37.92,44.98 -56.75,69.63 -18.82,24.66 -74.28,95.5 -123.24,157.41 l -89.01,112.59 18.15,33.69 c 15.49,28.78 16.3,37.75 5.54,61.36 -10.69,23.48 -10.23,29.4 3.08,39.13 9.19,6.73 15.68,26.17 15.68,47.02 0,49.17 21.11,66.86 79.77,66.86 41.46,0 57.56,6.48 111.37,44.77 94.98,67.59 102.39,70.4 150.71,57.22 32.93,-8.98 43.81,-8.68 51.67,1.46 5.48,7.07 20.05,18.22 32.38,24.79 12.33,6.57 22.42,16.54 22.42,22.15 0,5.62 -24.38,67.29 -54.17,137.06 -37.3,87.35 -55.14,143.11 -57.28,179.11 -2.94,49.18 -4.59,52.09 -28.03,49.39 -30.57,-3.53 -35.31,17.18 -21.4,93.49 5.32,29.19 8.57,54.21 7.21,55.59 -1.35,1.39 -26.73,-10.86 -56.4,-27.22 -29.67,-16.35 -64.93,-29.81 -78.35,-29.91 -31.76,-0.23 -16.37,13.86 32.05,29.34 46.82,14.96 106.93,70.43 106.93,98.68 0,32.64 -23.63,25.51 -75.45,-22.75 -25.98,-24.2 -64.41,-52.22 -85.4,-62.27 -21,-10.05 -38.23,-23.88 -38.29,-30.73 -0.14,-14.75 -46.02,-16.86 -54.88,-2.53 -3.37,5.46 6.45,14.98 21.83,21.17 59.51,23.94 77.57,35.04 122.23,75.13 l 46.18,41.47 -8.28,93.03 c -5.08,56.96 -4.58,101.28 1.26,114.3 8.17,18.2 2.82,27.26 -37.03,62.72 -25.63,22.8 -53.19,45.49 -61.25,50.42 -21.93,13.42 -5.17,23.33 18.26,10.79 11.14,-5.97 40.94,-28.74 66.22,-50.62 53.87,-46.63 64.67,-48.95 64.67,-13.9 0,31.73 -46.72,77.85 -94.99,93.78 -18.99,6.27 -34.52,15.61 -34.52,20.77 0,12 47.78,1.06 78.07,-17.88 12.81,-8.01 24.02,-13.08 24.91,-11.27 23.34,47.16 40.79,77.66 55.49,96.94 l 18.22,23.91 34.29,-58.78 c 20.84,-35.73 42.02,-59.93 54,-61.69 20.52,-3.03 83.55,51.43 116.56,100.71 12.53,18.72 26.54,26.73 46.73,26.73 40.25,0 47.3,-17.95 8.55,-21.77 -41.97,-4.14 -45.1,-19.13 -8.36,-40.04 22.68,-12.9 29.82,-24.1 29.82,-46.73 0,-30.59 13.96,-48.66 24.46,-31.66 3.25,5.26 6.92,36.7 8.16,69.88 1.24,33.17 6.73,60.21 12.21,60.07 15.04,-0.37 74.72,-101.07 74.72,-126.07 0,-12.02 -13.45,-36.58 -29.88,-54.58 -16.45,-18 -29.89,-36.97 -29.89,-42.17 0,-5.2 -7.23,-17.43 -16.05,-27.18 -14.81,-16.36 -14.58,-19.61 2.93,-41.87 10.45,-13.28 27.21,-50.48 37.27,-82.68 10.05,-32.2 21.85,-68.11 26.21,-79.81 11.83,-31.7 113.77,-83.34 164.54,-83.34 27.7,0 43.9,4.97 47.6,14.61 4.42,11.52 -0.62,13.36 -23.84,8.72 -21.24,-4.25 -29.41,-2.07 -29.29,7.81 0.22,20.48 10.74,32.41 54.46,61.77 38.18,25.64 34.2,37.55 -5.46,16.33 -20.35,-10.89 -59.12,2.33 -59.12,20.16 0,5.03 20.43,18.19 45.4,29.23 42.55,18.82 48.21,19.12 90.36,4.81 53,-17.99 62.58,-12.85 92.88,49.73 15.84,32.73 20.48,62.15 20.64,131.2 0.17,67.05 5.09,99.72 19.93,132.44 26.41,58.2 25.51,59.12 -17.26,17.58 -49.49,-48.07 -62.15,-33.66 -34.33,39.06 28.21,73.71 27.14,77.13 -7.2,22.99 -29.73,-46.89 -92.82,-94.32 -110.73,-83.25 -6.31,3.9 2.88,30.07 23.85,67.95 38.24,69.06 58.78,133.3 45.29,141.63 -4.86,3.01 -11.86,-7.04 -15.54,-22.33 -14.39,-59.72 -54.28,-122.59 -93.47,-147.33 -35.48,-22.4 -89.71,-33.99 -89.71,-19.17 0,3.17 21.69,31.19 48.2,62.27 46.22,54.17 79.79,116.14 68.84,127.09 -2.85,2.85 -35.96,-26.03 -73.57,-64.19 -70.75,-71.79 -114.52,-93.79 -166.76,-83.8 -36.31,6.94 -32.85,16.73 16.19,45.81 47.95,28.42 167.86,146.16 148.86,146.16 -6.82,0 -41.23,-23.78 -76.46,-52.84 -86.92,-71.69 -192.24,-104.52 -244.91,-76.33 -26.85,14.37 -24.04,26.2 8.13,34.17 43.38,10.75 140.93,63.11 182.33,97.87 20.83,17.49 36.61,33.06 35.07,34.6 -1.54,1.55 -33.72,-13.09 -71.5,-32.51 -73.55,-37.82 -143.41,-55.43 -143.41,-36.15 0,6.19 7.02,11.26 15.59,11.26 20.68,0 112.09,38.7 145.35,61.54 33.4,22.94 133.59,25.19 157.5,3.54 10.04,-9.07 43.3,-15.98 87.83,-18.22 62.54,-3.16 72.41,-1.3 77.46,14.61 3.18,10.03 13.45,18.23 22.82,18.23 9.37,0 26.92,6.93 39,15.39 16.81,11.77 26.7,12.86 42.07,4.63 26.27,-14.06 25.58,-2.23 -1.56,26.66 -29.37,31.26 -39.51,29.43 -92.91,-16.79 -25.32,-21.92 -55.02,-39.85 -65.98,-39.85 -30.85,0 -116.25,30.32 -129.14,45.86 -17.07,20.56 -69.03,16.84 -108.74,-7.78 -59.41,-36.84 -141.81,-74.14 -204.24,-92.44 -32.87,-9.65 -64.25,-18.94 -69.73,-20.65 -5.48,-1.72 9.09,-3.47 32.38,-3.9 23.89,-0.45 42.34,-5.61 42.34,-11.84 0,-12.67 -142.93,-8.75 -155.95,4.28 -10.25,10.24 15.61,26.34 42.6,26.54 27.55,0.2 164.53,45.02 211.33,69.14 134,69.1 152.65,80.45 132.16,80.45 -11.95,0 -39.08,-8.86 -60.3,-19.68 -90.55,-46.2 -171.88,-69.98 -239.28,-69.98 -65.27,0 -129.81,14.48 -129.81,29.13 0,3.99 45.46,15.21 101.02,24.93 55.57,9.73 119.46,25.57 141.97,35.2 l 40.94,17.51 -42.34,7.27 c -23.29,3.99 -42.34,11.18 -42.34,15.96 0,4.79 19.05,13.59 42.34,19.57 129.11,33.11 146.06,58.58 85.39,128.3 -28.27,32.48 -38.07,52.56 -38.07,78.04 0,22.95 -4.12,32.95 -12.45,30.25 -17.3,-5.62 -46.27,-66.83 -46.85,-98.97 -0.49,-27.18 -43.64,-87.94 -62.46,-87.94 -5.72,0 -18.8,-9.68 -29.07,-21.52 -21.31,-24.57 -39.19,-16.22 -20.42,9.55 25.98,35.67 49.6,98.54 54.4,144.75 l 4.99,48.1 -26.26,-24.47 c -14.44,-13.47 -43.77,-27.6 -65.17,-31.41 -24.72,-4.4 -48.24,-17.56 -64.49,-36.08 -36.4,-41.49 -55.04,-38.73 -46.48,6.88 l 6.76,36.02 -30.29,-21.56 c -94.32,-67.16 -263.39,-252.98 -345.07,-379.25 -259.27,-400.81 -316.32,-960.49 -143.98,-1412.59 63.43,-166.4 208.76,-386.49 356.62,-540.05 70.22,-72.93 71.72,-74.23 71.72,-62.2 z m -249.07,1708.51 c 0,19.59 20.61,36.07 58.81,47.03 33.58,9.63 42,-2.21 13.42,-18.86 -15.57,-9.07 -15.04,-10.18 4.98,-10.45 12.33,-0.17 22.41,-4.79 22.41,-10.27 0,-5.48 -8.4,-9.96 -18.68,-9.96 -10.27,0 -32.68,-2.8 -49.81,-6.23 -23.81,-4.76 -31.13,-2.71 -31.13,8.74 z M 3523.65,4010.4 c 2.32,24.52 -17.95,53.96 -128.08,186.04 -94.82,113.7 -136.73,156.86 -152.21,156.76 -52.63,-0.38 -47.38,-14.87 45.83,-126.43 50.72,-60.7 118.25,-142.52 150.07,-181.82 31.82,-39.31 63.2,-69.71 69.74,-67.56 6.54,2.14 13.12,17 14.65,33.01 z m 286.15,-5.97 c 413.86,72.84 443.34,80.74 443.34,118.79 0,27.62 -22.06,40.71 -60.41,35.86 -18.83,-2.38 -79.07,-9.28 -133.86,-15.34 -54.8,-6.05 -178.08,-24.69 -273.98,-41.42 -95.89,-16.72 -188.55,-32.54 -205.92,-35.14 -30.4,-4.56 -31.52,-6.42 -29.89,-49.51 l 1.69,-44.77 74.72,6.12 c 41.1,3.37 124.04,14.8 184.31,25.41 z m -159.4,93.95 c 238.01,40.15 337.7,55.22 440.85,66.66 61.64,6.83 112.07,16.44 112.07,21.36 0,11.19 -183.71,226.65 -185.93,218.06 -0.89,-3.46 -4.4,-18.89 -7.81,-34.3 -4.23,-19.11 -16.4,-32.35 -38.24,-41.6 -26.33,-11.16 -28.93,-14.78 -14.59,-20.36 36.02,-14.04 17.3,-26.84 -29.89,-20.44 l -47.32,6.41 27.95,-25.21 c 15.37,-13.86 34.43,-25.2 42.34,-25.2 7.92,0 14.39,-4.48 14.39,-9.96 0,-5.48 -22.15,-9.97 -49.22,-9.97 -27.08,0 -52,-4.48 -55.39,-9.96 -10.39,-16.82 -34.87,-11.04 -34.87,8.23 0,10 -10.91,28.44 -24.26,40.98 -24.19,22.73 -24.35,22.74 -61.69,4.22 -30.48,-15.1 -40.48,-27.83 -53.77,-68.37 l -16.32,-49.82 -50.17,-2.96 c -48.09,-2.85 -52.5,-0.84 -106.29,48.32 -30.86,28.21 -56.12,58.97 -56.12,68.35 0,32.58 64.98,79.14 119.56,85.68 8.22,0.99 26.15,6.68 39.85,12.65 13.7,5.97 40.94,13.44 60.53,16.6 19.6,3.16 44.26,12.27 54.8,20.24 17.77,13.45 16.15,14.52 -22.35,14.82 -22.83,0.17 -62.75,9.42 -88.7,20.54 -46.43,19.9 -47.52,19.92 -68.08,1.24 -32.3,-29.36 -61.22,-41.39 -99.44,-41.39 -42.71,0 -137.43,-19.07 -149.17,-30.03 -13.53,-12.63 221.96,-290.28 241.42,-284.62 8.91,2.59 56.54,11.51 105.86,19.83 z m 724.99,117.16 c 151.11,216.62 223.36,395.1 277.61,685.75 15.99,85.71 15.82,374.17 -0.29,468.25 -50.9,297.33 -145.34,510.33 -322.33,726.92 l -70.51,86.29 -66.55,-33.2 c -78.81,-39.32 -186.83,-51.86 -283.89,-32.96 -155.26,30.23 -189.07,17.88 -40.22,-14.69 59.82,-13.09 107.61,-16.19 194.27,-12.61 63.22,2.61 122.78,8.09 132.37,12.18 13.24,5.65 17.44,2.68 17.44,-12.33 0,-14.34 -14.37,-25.96 -52.31,-42.33 -43.05,-18.57 -69.05,-22.37 -146.94,-21.48 -52.06,0.6 -117.07,5.76 -144.47,11.48 -106.06,22.15 -117.8,23.49 -111.11,12.66 5.7,-9.23 33.1,-18.92 145.99,-51.6 13.69,-3.96 69.73,-8.37 124.53,-9.8 54.79,-1.42 101.6,-4.54 104.01,-6.93 2.42,-2.4 -2.29,-11.04 -10.46,-19.21 -22.03,-22.03 -129.39,-37.77 -203.48,-29.84 -88.13,9.44 -85.55,29.61 2.83,22.11 36.99,-3.14 87.42,-2.4 112.08,1.64 40.19,6.57 34.92,7.97 -50.87,13.49 -69.14,4.45 -120.18,14.7 -183.93,36.93 -48.53,16.93 -96.54,30.78 -106.7,30.78 -25.91,0 -58.7,-19.1 -51.84,-30.19 3.4,-5.51 12.92,-4.76 23.51,1.85 13.99,8.74 31.83,5.5 83.43,-15.15 36.1,-14.44 72.72,-26.25 81.37,-26.25 8.66,0 15.74,-4.49 15.74,-9.97 0,-17.34 -47.31,-10.81 -104.33,14.4 -56.4,24.94 -74.64,18.81 -30.36,-10.21 32.45,-21.26 181.39,-70.74 238.87,-79.36 56.08,-8.41 57.69,-20.34 4.69,-34.61 -56.68,-15.26 -170.47,9.37 -275.89,59.72 -66.76,31.88 -80.39,35.7 -72.09,20.18 18.48,-34.53 139.46,-96.06 248.25,-126.25 10.11,-2.81 11.07,-6.97 3.35,-14.69 -6.45,-6.45 -61.03,-11.19 -136.16,-11.82 -68.97,-0.58 -125.4,-2.14 -125.4,-3.46 0,-1.33 18.07,-7.28 40.15,-13.23 49.56,-13.34 44.07,-25.38 -15.65,-34.33 -63.96,-9.59 -155.6,33.58 -208.63,98.3 -27.62,33.71 -40.47,43.08 -46.27,33.73 -5.33,-8.6 8.07,-29.63 40,-62.75 70.73,-73.37 80.82,-92.28 80.82,-151.63 0,-43.73 5.65,-60.51 33.67,-99.91 18.52,-26.03 43.27,-66.39 55,-89.68 11.72,-23.29 25.45,-42.34 30.51,-42.34 5.05,0 25.44,9.58 45.29,21.3 32.86,19.39 39.67,20.12 75.8,8.2 21.82,-7.2 47.3,-19.03 56.62,-26.28 15.85,-12.34 15.75,-14.09 -1.54,-27.49 -13.37,-10.36 -25.23,-11.73 -42.99,-4.98 -13.49,5.13 -27.16,9.32 -30.38,9.32 -7.17,0 28.82,-30.92 52.92,-45.46 24.11,-14.55 11.44,-47.89 -15,-39.5 -15.27,4.85 -18.13,2.18 -14.11,-13.19 4.04,-15.46 22.94,-22.75 95.52,-36.85 75.37,-14.64 96.65,-23.14 127.35,-50.87 44.41,-40.13 55.25,-40.77 121.47,-7.21 42.3,21.43 60.58,25.15 102.41,20.83 68.81,-7.1 119.11,-29.6 141.05,-63.1 15.98,-24.41 18.21,-50.4 18.21,-212.54 0,-204.71 -4.51,-227.34 -62.17,-311.77 -57.89,-84.78 -106.67,-124.01 -195.47,-157.24 l -56.6,-21.17 32.43,-41.55 c 17.84,-22.85 48.78,-59.48 68.77,-81.4 108.41,-118.9 148.76,-171.76 154.51,-202.42 7.44,-39.61 3.38,-43.39 96.1,89.52 z m -1742.07,-20.83 c 29.48,35.04 31.45,47.47 11.75,74.4 -13.47,18.44 -15.46,17.69 -49.81,-18.73 -39.79,-42.18 -44.22,-60.48 -18.34,-75.56 25.34,-14.76 28.05,-13.81 56.4,19.89 z m 1012.1,-26.89 c 0,2.07 6.78,20 15.07,39.85 18.74,44.84 11.04,46.72 -15.18,3.71 -22.14,-36.31 -24.43,-47.32 -9.86,-47.32 5.48,0 9.97,1.69 9.97,3.76 z m -30.54,42.22 c 20.27,34.34 20.43,36.63 3.48,49.49 -25.29,19.18 -43.04,17.26 -69.44,-7.55 -28.88,-27.12 -29.1,-42.71 -0.91,-62.45 32.51,-22.77 43.29,-19.46 66.87,20.51 z m -1008.07,82.48 c 35.45,18.53 26.21,29.52 -19.92,23.7 -65.59,-8.27 -97.38,-48.08 -64.76,-81.07 10.01,-10.13 17.33,-6.9 37.36,16.53 13.7,16.02 34.99,34.4 47.32,40.84 z m 1277.71,-48.99 c 0,5.35 -11.21,17.08 -24.91,26.05 -13.7,8.98 -24.9,22.53 -24.9,30.12 0,7.59 -4.22,13.8 -9.38,13.8 -21.39,0 -17.84,-18.41 9.28,-48.11 28.59,-31.3 49.91,-40.64 49.91,-21.86 z m -350.85,25.13 c 14.77,13.7 34.75,24.91 44.4,24.91 9.64,0 17.53,6.73 17.53,14.95 0,23.9 -44.98,17.72 -78.93,-10.85 -30.06,-25.29 -40.81,-53.91 -20.26,-53.91 5.72,0 22.48,11.21 37.26,24.9 z m -697.69,62.99 c 15.02,13.92 27.72,19.24 31.46,13.18 10.84,-17.54 76.95,-38.54 152.5,-48.44 36.85,-4.82 37.16,-4.57 62.87,53.45 24.52,55.34 25.05,59.96 10.28,91.02 -8.55,17.99 -15.54,44.62 -15.54,59.18 0,14.55 -5.4,52.56 -11.99,84.47 -10.5,50.86 -9.68,64.77 6.66,112.84 10.25,30.15 33.57,72.28 51.83,93.61 38.79,45.31 39.15,48.63 14.14,131.7 -29.84,99.11 -34.97,131.14 -20.23,126.22 14.65,-4.88 58.83,-157.47 59.06,-203.93 0.1,-21.45 -10.86,-44.62 -34.54,-72.95 -51.28,-61.39 -59.94,-100.72 -47.09,-213.91 5.94,-52.24 17.49,-104.53 25.66,-116.2 10.77,-15.37 12.31,-27.93 5.6,-45.57 -5.09,-13.39 -9.26,-26.85 -9.26,-29.91 0,-8.35 95.25,2.89 175.46,20.7 38.97,8.66 101.17,20.03 138.22,25.28 69.63,9.86 114.85,37.38 114.59,69.72 -0.06,8.63 -25.84,42.16 -57.28,74.5 -61.46,63.23 -116.97,94.59 -135.18,76.37 -16.79,-16.79 -36.55,-12.43 -36.55,8.07 0,22.17 19.21,39.88 53.41,49.23 22.43,6.13 23.46,8.6 10.81,25.84 -9.57,13.02 -24.96,18.64 -48.68,17.75 -19.08,-0.72 -37.26,2.87 -40.42,7.98 -7.43,12.02 30.35,49.85 49.78,49.85 20.6,0 18.83,27.17 -2.48,38.25 -9.59,4.99 -26.41,5.46 -37.37,1.05 -31.65,-12.72 -36.45,-10.84 -33.07,13.01 1.92,13.52 16.05,28.84 35.6,38.6 27.72,13.85 30.26,17.98 17.54,28.53 -9.44,7.84 -27.63,9.94 -49.84,5.77 -30.15,-5.65 -34.98,-3.91 -34.98,12.6 0,22.6 13.99,35.13 54.79,49.03 l 29.89,10.19 -38.05,16.48 c -44.34,19.2 -43.67,39.21 1.46,43.67 27.1,2.67 31.51,6.94 30.91,29.88 -1.22,46.52 -14.06,65.96 -45.05,68.18 -88.38,6.35 -175.4,23.81 -228.22,45.83 -51.91,21.63 -79.12,25.53 -206.73,29.65 l -146.96,4.74 -10.22,-40.89 c -12.86,-51.47 -59.41,-152.94 -76.76,-167.34 -18.51,-15.36 -29.36,-0.55 -14.53,19.83 22.15,30.43 60.14,118.19 67,154.8 3.7,19.68 13.28,41.23 21.29,47.89 12.5,10.37 11.28,13.93 -8.51,24.91 -12.7,7.04 -25.91,12.97 -29.35,13.16 -3.45,0.19 -11.28,-33.39 -17.41,-74.64 -6.14,-41.24 -18.34,-91.68 -27.12,-112.08 -8.77,-20.4 -19.02,-59.5 -22.78,-86.9 -6.47,-47.23 -7.49,-48.61 -19.69,-26.64 -11.06,19.94 -9.18,34.56 13.5,104.61 14.5,44.79 31.34,118.43 37.44,163.64 9.54,70.76 8.71,89.72 -5.94,136.2 -17.31,54.93 -49.7,105.3 -60.68,94.38 -3.33,-3.32 -12.59,-43.66 -20.58,-89.67 -16.56,-95.29 -36.46,-120.98 -108.68,-140.3 -37.76,-10.1 -43.9,-16.1 -58.49,-57.18 -8.96,-25.24 -24.85,-55.07 -35.29,-66.28 -55.81,-59.9 -51.52,-98.45 32.61,-293.11 20.13,-46.57 45.23,-107.19 55.77,-134.7 33.86,-88.39 81.1,-157.11 124.38,-180.97 54.42,-30.02 226.15,-71.29 293.69,-70.59 61.26,0.64 99.5,-8.46 99.5,-23.67 0,-6.32 -12.08,-7.19 -32.37,-2.35 -52.04,12.43 -88.69,6.09 -116.24,-20.11 -14.15,-13.46 -39.18,-27.64 -55.62,-31.53 -16.44,-3.89 -35.49,-11.48 -42.34,-16.88 -17.14,-13.49 -15.64,-52.57 2.72,-70.93 13.58,-13.58 21.5,-12.88 75.84,6.67 33.37,12 72.01,32.33 85.85,45.16 z m 103.2,67.96 c -10.27,11.6 -10.83,17.47 -2.19,22.81 16.48,10.19 -18.06,51.26 -60.17,71.55 -18.37,8.85 -50.76,24.55 -71.98,34.87 -74.84,36.43 -124.23,125.32 -141.87,255.39 -10.64,78.44 12.66,55.36 31.33,-31.03 9.31,-43.09 28.74,-100.25 43.18,-127.02 22.52,-41.77 37.07,-54.32 102.68,-88.56 99.54,-51.93 127.8,-78.74 127.8,-121.25 0,-36.26 -7.59,-40.68 -28.78,-16.76 z m 833.26,-82.72 c 23.29,14.71 42.34,31.17 42.34,36.58 0,5.41 4.49,9.84 9.96,9.84 5.48,0 9.97,-6.72 9.97,-14.94 0,-32.85 130.32,-10.82 149.65,25.3 12.66,23.65 12.4,39.45 -0.64,39.45 -5.72,0 -38.22,18.24 -72.23,40.52 -49.61,32.49 -68.24,39.52 -94.22,35.49 -17.81,-2.76 -32.38,-0.7 -32.38,4.57 0,13.63 45.14,29.01 85.13,29.01 50.53,0 112.9,28.46 128.25,58.52 22.89,44.84 66.54,173.28 76.62,225.42 5.29,27.4 6.58,78.9 2.86,114.46 -6.34,60.47 -9.68,67.32 -51.91,106.09 l -45.13,41.44 34.09,31.21 c 49.08,44.9 95.57,56.49 170.68,42.53 33.61,-6.26 64.88,-15.15 69.5,-19.76 14.61,-14.62 30.32,-182.76 26.25,-281.08 -3.38,-81.65 -7.98,-102.2 -33.44,-149.46 -16.24,-30.14 -50.77,-76.26 -76.75,-102.5 -50.29,-50.8 -154.41,-106.7 -198.76,-106.71 -28.5,-0.01 -46.37,-15.46 -25.81,-22.32 17.21,-5.73 144.04,38.46 193.46,67.42 49.99,29.29 110.62,100.15 148.95,174.07 27.53,53.08 28.48,59.92 30.59,219.18 1.95,147.1 0.06,168.82 -17.95,206.58 -17.53,36.74 -26.71,44.15 -70.94,57.29 -69.75,20.71 -94.64,19.07 -148.92,-9.82 -65.08,-34.65 -99.09,-32.44 -145.44,9.44 -29.65,26.79 -54.33,37.81 -112.11,50.09 -139.15,29.56 -211.05,35.29 -264.87,21.09 -38.19,-10.08 -205.15,-85.9 -220.35,-100.08 -1.47,-1.37 4.11,-15.48 12.39,-31.36 8.28,-15.89 15.09,-36.82 15.12,-46.51 0.05,-13.71 5.47,-16.26 24.4,-11.51 38.28,9.6 48.59,-3.52 25.65,-32.68 -26.11,-33.2 -25.42,-44.43 2.32,-37.9 12.32,2.9 29.14,0.65 37.35,-4.99 12.9,-8.86 12.08,-12.69 -6,-27.91 -19.5,-16.42 -43.81,-53.04 -43.81,-65.98 0,-3.1 12.71,-5.64 28.23,-5.64 40.9,0 44.14,-8.95 15.52,-42.96 l -25.44,-30.23 33.07,-10.73 c 38.26,-12.41 49.18,-40.42 18.85,-48.36 -11.33,-2.96 -20.42,-13.57 -20.42,-23.83 0,-20.15 65.35,-122.84 78.17,-122.84 4.35,0 22.67,33.62 40.74,74.72 18.1,41.2 39.02,74.72 46.63,74.72 17.38,0 17.47,-10.13 0.31,-35.15 -7.42,-10.81 -25.73,-50.52 -40.7,-88.24 -32.76,-82.53 -29,-122.56 14.98,-159.57 39.79,-33.48 88.14,-45.69 181.17,-45.75 79.79,-0.06 103.67,-13.09 42.25,-23.05 -19.23,-3.12 -48.58,-15.37 -65.22,-27.22 -16.65,-11.86 -49.11,-23.94 -72.14,-26.87 -52.61,-6.68 -69.1,-19.25 -60.81,-46.37 12.56,-41.07 21.95,-45.56 66.92,-32.01 22.92,6.91 60.73,24.59 84.02,39.3 z m 92.15,94.72 c 0,11.61 58.06,12.36 65.18,0.84 3.16,-5.11 -10.22,-9.29 -29.72,-9.29 -19.5,0 -35.46,3.8 -35.46,8.45 z m -1782.68,7.69 c 18.84,29.86 18.92,31.94 1.93,52.91 -21.52,26.58 -41.13,20.78 -72.31,-21.38 l -22.96,-31.06 23.07,-18.69 c 29.88,-24.2 46.16,-19.97 70.27,18.22 z m 39.75,-9.78 c 13.98,36.79 6.72,38.49 -14.07,3.3 -10.08,-17.07 -12.92,-29.59 -6.7,-29.59 5.93,0 15.27,11.84 20.77,26.29 z m 617.16,11.87 c 0,7.3 -139.46,42.16 -164.62,41.16 -16.4,-0.66 57.82,-31.67 94.88,-39.64 49.36,-10.61 69.74,-11.06 69.74,-1.52 z m -743.24,46.37 c 8.92,13.61 27.37,27.55 40.99,30.97 46.04,11.55 29.39,33.95 -25.24,33.95 -42.98,0 -51.54,-3.33 -60.8,-23.65 -7.82,-17.17 -7.67,-29.46 0.56,-44.83 14.73,-27.52 24.64,-26.73 44.49,3.56 z m 1938.75,35.03 c 0,12.48 -10.57,12.48 -29.88,0 -12.09,-7.81 -10.66,-9.69 7.47,-9.81 12.33,-0.09 22.41,4.33 22.41,9.81 z m 66.78,11.22 c 113.17,45.57 178.05,102.16 228.34,199.16 25.55,49.27 27.8,62.54 27.64,163.22 -0.19,115.45 -9.76,214.61 -21.73,225.13 -13.36,11.75 -74.78,28.91 -103.46,28.91 -26.49,0 -99.2,-37.62 -111.66,-57.79 -2.98,-4.82 8.26,-18.89 24.99,-31.26 42.7,-31.57 58.47,-76.67 58.47,-167.23 0,-83.26 -2.52,-94.77 -47.73,-217.65 -34.79,-94.57 -50.54,-122.05 -74.29,-129.59 -9.6,-3.05 -17.46,-9.72 -17.46,-14.83 0,-11.84 3.09,-11.68 36.89,1.93 z m -499.47,89.4 c -14.68,17.45 -38.07,54.18 -51.97,81.61 -20.21,39.88 -23.21,54.43 -14.94,72.57 9.5,20.85 8.18,22.39 -16.52,19.12 -14.76,-1.96 -29.08,-4.36 -31.82,-5.35 -2.74,-0.98 -16.19,-1.22 -29.89,-0.52 -22.88,1.16 -22.33,0.1 6.72,-13.04 63.18,-28.59 84.09,-101.96 25.88,-90.81 -16.49,3.15 -11.29,-0.85 12.93,-9.95 22.3,-8.38 57.87,-32.99 79.05,-54.67 44.93,-46.02 59.54,-45.28 20.56,1.04 z m -95.33,223.75 c 0,7.9 -5.6,13.24 -12.45,11.87 -8.5,-1.7 -12.18,10.94 -11.59,39.85 0.47,23.28 -2.89,42.34 -7.48,42.34 -4.58,0 -8.33,20.17 -8.33,44.83 0,24.66 -4.48,44.83 -9.96,44.83 -5.48,0 -9.96,6.91 -9.96,15.34 0,12.44 -2.54,12.96 -13.45,2.77 -11.29,-10.54 -11.29,-14.72 0,-26.01 7.39,-7.39 13.45,-21.81 13.45,-32.03 0,-15.55 -5.5,-17.7 -33.61,-13.14 -21.02,3.41 -36.4,0.92 -41.09,-6.67 -5.25,-8.49 -1.88,-10.35 11.21,-6.19 10.59,3.36 32.78,-2.61 51.07,-13.73 38.18,-23.22 43.5,-56.55 9.93,-62.2 -21.78,-3.66 -21.64,-4.15 4.79,-17.14 14.96,-7.36 29.85,-21.74 33.09,-31.94 6.53,-20.59 24.38,-15.3 24.38,7.22 z m -1155.66,278.37 c 6.82,8.22 18.24,14.94 25.39,14.94 22.46,0 67.05,104.16 59.43,138.83 -8.73,39.75 -18.42,44.44 -53.94,26.07 -31.45,-16.26 -35.74,-25.15 -45.9,-95.16 -3.58,-24.66 -8.45,-57.16 -10.83,-72.23 -4.76,-30.15 6.61,-35.63 25.85,-12.45 z m -3.58,32.59 c -6.77,10.96 19,111.34 31.89,124.24 5.18,5.18 17.74,7.72 27.92,5.64 33.91,-6.93 10.33,-96.4 -32.87,-124.68 -11.8,-7.73 -23.93,-10.07 -26.94,-5.2 z m 46.32,72.03 c 2.86,10.97 1.15,17.42 -3.82,14.35 -4.97,-3.07 -9.03,-12.04 -9.03,-19.93 0,-20.62 6.76,-17.68 12.85,5.58 z m 1041.24,-31.31 c 8.99,5.7 -0.9,13.55 -32.11,25.47 -42.97,16.41 -46.54,16.39 -75.27,-0.58 -16.58,-9.8 -30.15,-21.33 -30.15,-25.63 0,-10.42 120.96,-9.77 137.53,0.74 z m -227.2,29.75 c 0,35.06 -117.81,69.9 -166.89,49.36 -27.16,-11.38 -27.02,-11.51 17.45,-17.67 24.66,-3.42 58.29,-13.66 74.72,-22.76 31.96,-17.7 74.72,-22.81 74.72,-8.93 z m 119.83,26.71 26.26,25.17 25.67,-20.19 c 35.28,-27.76 56.38,-26.21 30.48,2.24 -30.56,33.54 -42.83,62.15 -42.83,99.8 0,47.8 7.67,50.48 48.41,16.9 19.7,-16.24 46.01,-29.53 58.46,-29.53 32.93,0 27.72,14.08 -10.29,27.83 -53.13,19.21 -76.66,47.3 -76.66,91.52 0,45.4 14.03,58.44 38.78,36.04 9.67,-8.75 30.68,-15.6 46.69,-15.21 27.59,0.66 27.03,1.44 -10.75,14.98 -21.92,7.85 -50.3,26.15 -63.09,40.65 -21.86,24.83 -23.04,32.89 -19.92,136.95 3.22,107.45 4.35,112.26 40.05,170.35 47.57,77.4 58.66,143.7 29,173.36 -11.5,11.5 -28.75,21.39 -38.34,21.97 -9.59,0.58 -26.32,1.71 -37.18,2.49 -27.99,2.03 -31.67,34.51 -5.03,44.36 19.34,7.16 19.92,9.32 5.72,21.1 -22.88,19 -19.46,47.22 6.6,54.36 l 22.41,6.15 -24.9,12.68 c -27.56,14.03 -38.74,59.3 -20.16,81.68 7.69,9.26 7.91,15.46 0.72,19.91 -13.08,8.08 -13.69,41.95 -0.89,49.86 5.26,3.25 18.11,0.56 28.57,-5.97 20.32,-12.69 51.53,-6.09 51.53,10.89 0,5.65 -17.82,10.27 -39.62,10.27 -31.23,0 -43.06,5.26 -55.89,24.83 -25.18,38.44 -13.04,54.03 37.58,48.23 l 42.99,-4.91 -54.79,26.48 c -59.63,28.82 -129.59,37.75 -136.75,17.45 -2.86,-8.1 5.65,-12.45 24.34,-12.45 53.36,0 70.3,-38.56 25.23,-57.46 l -27.39,-11.49 31.43,5.17 c 37.87,6.23 47.86,-6.07 49.34,-60.75 0.74,-27.27 -5.55,-47.62 -19.92,-64.46 -13.79,-16.15 -15.05,-20.04 -3.69,-11.33 14.82,11.36 18.3,10.71 24.13,-4.47 3.83,-9.99 -0.11,-29.79 -9.02,-45.32 -12.84,-22.38 -13.16,-26.56 -1.71,-22.17 21.74,8.35 17.42,-30.48 -5.71,-51.42 -18.5,-16.74 -18.69,-18.79 -2.87,-30.36 26.13,-19.1 -0.51,-44.44 -46.71,-44.44 -44.46,0 -68.55,-22.78 -76.61,-72.41 -8.64,-53.3 13.63,-106.62 67.89,-162.48 37.04,-38.13 52.67,-63.88 63.51,-104.61 18.7,-70.26 18.47,-142.22 -0.58,-179.06 -17.3,-33.45 -3.34,-40.02 18.57,-8.73 21.02,30 29.47,7.39 15.97,-42.75 -15.42,-57.28 -41.38,-91.35 -86.4,-113.42 -34.2,-16.78 -35.46,-18.74 -14.06,-21.99 15.31,-2.33 33.15,5.68 51.21,22.99 17.09,16.37 30.22,22.51 34.24,16.01 8.69,-14.06 -11.26,-87.7 -34.69,-128.07 -22.52,-38.83 -15.05,-41.44 20.67,-7.22 z m -53.41,678.86 c -11.46,11.46 -7.25,23.25 8.3,23.25 8.22,0 14.95,-6.73 14.95,-14.95 0,-15.55 -11.78,-19.76 -23.25,-8.3 z m 7.79,-660.74 c 36.09,47.31 33.87,66.4 -6.96,59.89 -17.8,-2.84 -45.19,-0.24 -60.86,5.78 -23.68,9.09 -26.41,13.42 -16.21,25.71 6.75,8.13 21.21,14.77 32.14,14.77 21.05,0 97.23,69.49 97.23,88.69 0,6.81 -9.91,9.26 -24.9,6.15 l -49.81,-10.34 c -35.59,-7.39 -30.82,9.84 13.87,50.22 28.41,25.66 40.03,44.99 43.45,72.21 2.56,20.43 2.98,40.19 0.93,43.89 -2.05,3.71 -26.56,-17.4 -54.46,-46.9 -40.76,-43.1 -57.27,-71.7 -84.01,-145.55 -18.3,-50.55 -30.89,-95.76 -27.99,-100.46 2.91,-4.71 23.07,-15.67 44.8,-24.37 30.05,-12.02 40.88,-22.65 45.23,-44.41 7.39,-36.95 16.46,-36.05 47.55,4.72 z m 254.82,-13.4 c 4.06,8.22 11.31,28.22 16.11,44.45 6.65,22.42 16.47,31.08 40.96,36.09 17.72,3.62 38.93,12.16 47.13,18.97 13.04,10.82 11.85,16.04 -9.41,41.31 -13.39,15.91 -38.93,56.3 -56.76,89.75 -25.96,48.7 -40.44,64.29 -72.71,78.3 -22.17,9.63 -51.17,29.25 -64.45,43.61 -13.29,14.36 -27.86,26.1 -32.38,26.1 -10.16,0 -10.63,-50.98 -0.6,-65.1 19.72,-27.77 67.89,-54.45 98.33,-54.45 22.8,0 33.52,-4.67 33.52,-14.59 0,-23.15 -39,-37.91 -86.14,-32.6 -45.72,5.16 -54.7,-4.75 -30.92,-34.13 24.07,-29.75 62.09,-48.19 99.35,-48.19 46.65,0 50.83,-22.56 8.24,-44.58 -37.68,-19.48 -79.77,-19.37 -107.86,0.31 -21.02,14.72 -22.15,14.31 -22.15,-8.1 0,-38.49 77.38,-99.93 118.49,-94.07 7.63,1.09 17.19,8.7 21.25,16.92 z m 94.39,29.89 c 19.2,8.25 19.14,8.59 -1.91,9.26 -12,0.39 -24.6,-3.78 -27.98,-9.26 -7.28,-11.78 2.46,-11.78 29.89,0 z m -1076.62,25.15 c 24.31,26.23 45.48,92.42 45.48,142.17 0,15.95 11.02,44.22 24.49,62.84 64.16,88.72 65.51,107.32 9.05,124.99 -38.71,12.12 -34.61,13.98 -109.49,-49.66 -32.16,-27.34 -32.77,-29.2 -18.5,-56.79 29.17,-56.41 16.33,-120.39 -29.9,-148.96 -40.65,-25.12 -42.79,-25.01 -43.4,2.38 -0.27,12.33 -3.44,36.65 -7.05,54.04 -11.65,56.12 11.2,97.7 95.89,174.55 43.4,39.38 78.91,79.71 78.91,89.62 0,27.44 -39.77,22.47 -79.92,-9.97 -57.37,-46.36 -103.02,-70.38 -147.19,-77.44 -31.9,-5.1 -41.88,-11.14 -41.88,-25.35 0,-29.72 53.34,-24.98 74.01,6.57 28.15,42.97 35.86,16.81 10.13,-34.4 -28,-55.75 -30.88,-105.37 -9.15,-157.39 13.1,-31.35 13.26,-38.37 1.15,-50.47 -7.73,-7.74 -25.78,-14.75 -40.11,-15.58 -14.33,-0.83 -26.05,-7.11 -26.06,-13.96 -0.01,-16.16 9.72,-15.7 53.31,2.52 35.66,14.9 35.88,14.83 51.28,-14.95 20.67,-39.96 74.17,-42.3 108.95,-4.76 z m 603.39,-16.98 c -28.32,12.83 -59.78,36.49 -59.78,44.96 0,4.67 8.35,19.09 18.55,32.06 10.2,12.96 28.6,54.87 40.9,93.12 15.16,47.14 33.51,80.69 56.95,104.14 95.58,95.57 105.67,142.18 44.9,207.33 l -37.95,40.69 -31.5,-75.03 c -28.05,-66.81 -30.83,-82.05 -25.5,-139.19 7.58,-81.2 -13.85,-150.65 -60.44,-195.8 -32.86,-31.85 -34.09,-32.18 -64.04,-16.69 -16.8,8.69 -40.85,15.54 -53.45,15.23 -18.2,-0.45 -15.9,-3.01 11.21,-12.45 38.82,-13.53 50.35,-32.88 23.71,-39.79 -14.2,-3.68 -13.27,-4.91 4.44,-5.82 23.7,-1.22 31.08,-26.29 9.96,-33.83 -6.85,-2.44 -9.48,-7.67 -5.84,-11.6 3.64,-3.93 15.58,-2.36 26.53,3.5 14.81,7.93 28.42,6.96 53.16,-3.78 18.28,-7.94 39.97,-14.3 48.19,-14.13 13.28,0.28 13.28,1.06 0,7.08 z m 564.51,23.4 c -10.25,5.74 -23.75,5.14 -36.36,-1.61 -27.83,-14.9 -25.43,-16.62 16.3,-11.75 28.34,3.31 32.76,6.26 20.06,13.36 z m 2.41,34.86 c 8.74,-7.47 22.62,-16.85 30.84,-20.84 8.22,-3.99 4.4,2.02 -8.49,13.35 -24.11,21.22 -22.3,23.85 23.43,33.97 17.2,3.8 16.75,4.56 -3.32,5.56 -32.63,1.62 -22.13,22.26 18.87,37.07 26.06,9.42 29.04,12.57 12.42,13.14 -12.02,0.42 -37.83,-8.67 -57.37,-20.2 -19.54,-11.53 -42.04,-18.46 -50.01,-15.4 -7.96,3.06 -28.58,33.79 -45.8,68.28 -17.22,34.5 -41.56,73.93 -54.08,87.63 -17.14,18.74 -23.8,40.1 -26.92,86.24 -4.59,68.06 -24.91,104.9 -88.77,160.97 l -37.6,33.01 -15.53,-30.03 c -42.73,-82.64 -2.47,-175.11 98.03,-225.13 29.36,-14.6 49.6,-35.63 72.21,-74.98 17.27,-30.08 45.83,-71.5 63.45,-92.04 31.66,-36.91 31.83,-37.67 14.49,-64.13 l -17.54,-26.78 27.9,21.94 c 23.91,18.82 30.16,20.01 43.79,8.37 z m -1408.39,14.44 c 4.61,14.52 0.28,27.52 -13.88,41.68 -18.64,18.63 -21.2,18.99 -27.03,3.79 -9.26,-24.13 3.57,-66.56 20.13,-66.56 7.75,0 17.09,9.49 20.78,21.09 z m 64.78,18.99 c -2.53,8.09 -6.23,46.78 -8.23,85.98 -3.2,62.77 -6.16,71.92 -24.86,76.81 -29.87,7.81 -32,2.16 -17.3,-45.9 7.14,-23.32 12.1,-64.04 11.03,-90.49 -1.82,-45 -0.47,-47.86 21,-44.59 14.84,2.25 21.32,8.69 18.36,18.19 z m -76.16,85.31 c 3,7.84 0.78,26.54 -4.96,41.57 -10.07,26.38 -10.91,26.65 -24.63,7.97 -15.38,-20.94 -17.43,-35.36 -8.39,-58.92 6.68,-17.4 29.9,-11.67 37.98,9.38 z m 414.5,184.67 c 0,17.66 -2.47,19.1 -14.95,8.74 -8.22,-6.82 -14.94,-16.33 -14.94,-21.14 0,-4.81 6.72,-8.75 14.94,-8.75 8.59,0 14.95,8.99 14.95,21.15 z m -349.05,41.12 c 0.19,4.11 -4.27,7.47 -9.93,7.47 -12.43,0 -29.34,-41.27 -22,-53.65 4.89,-8.24 31.15,29.74 31.93,46.18 z m 30.24,-42.34 c 0,5.48 -4.48,9.96 -9.96,9.96 -5.48,0 -9.96,-4.48 -9.96,-9.96 0,-5.48 4.48,-9.96 9.96,-9.96 5.48,0 9.96,4.48 9.96,9.96 z m -81.62,45.09 c -3.07,3.07 -8.64,-2.46 -12.38,-12.28 -5.41,-14.2 -4.27,-15.35 5.57,-5.58 6.81,6.76 9.87,14.8 6.81,17.86 z m 31.81,34.61 c 0,5.48 -1.98,9.96 -4.4,9.96 -2.41,0 -7.16,-4.48 -10.55,-9.96 -3.38,-5.48 -1.41,-9.96 4.4,-9.96 5.8,0 10.55,4.48 10.55,9.96 z m 1262.12,92.15 c -50.09,49.46 -65.79,72.52 -76.27,112.08 -15.85,59.83 -27.34,75.39 -40.41,54.72 -13.71,-21.7 -11.75,-66.69 4.25,-97.55 16.82,-32.44 90.99,-102.5 125.52,-118.57 51.54,-23.99 48.12,-11.1 -13.09,49.32 z m -643.37,-4.76 c 14.28,20.43 33.57,60.29 42.85,88.58 9.29,28.28 24.37,54.3 33.52,57.82 14.07,5.4 14.43,7.75 2.32,15.24 -18.79,11.61 -39.88,-6.09 -40.01,-33.56 -0.12,-27.79 -41.99,-117.06 -63.07,-134.5 -9.09,-7.52 -16.53,-17.61 -16.53,-22.41 0,-18.2 15.84,-7.04 40.92,28.83 z m 117.98,26.15 c 21.74,44.9 29.36,165.41 10.46,165.41 -5.56,0 -10,-27.46 -10.05,-62.26 -0.08,-45.41 -6.87,-76.8 -25.09,-115.94 -15.42,-33.13 -19.38,-49.02 -10.36,-41.53 8.04,6.67 23.81,31.12 35.04,54.32 z m 85.09,38.82 c -4.17,23.05 -6.81,67.69 -5.86,99.2 1.75,57.83 -6.27,69.62 -28.84,42.43 -9.8,-11.81 -9.78,-28.34 0.07,-80.55 6.82,-36.13 9.7,-88.85 6.4,-117.15 l -6,-51.46 20.9,32.82 c 17.02,26.69 19.5,40.62 13.33,74.71 z m -271.39,20.23 c 42.47,43.66 77.21,80.96 77.21,82.9 0,18.06 -37,-10.73 -108.71,-84.59 -49.58,-51.07 -77.18,-85.92 -65.63,-82.9 10.96,2.88 54.67,40.95 97.13,84.59 z m 798.36,-63.48 c -28.03,16.08 -69.55,50.36 -92.28,76.17 -46.82,53.19 -60.95,52.82 -35.44,-0.94 28.17,-59.36 90.39,-101.26 153.77,-103.55 20.02,-0.73 14.91,4.83 -26.05,28.32 z m 102.25,5.08 c -75.63,36.9 -123.65,78.58 -163.99,142.33 -27.17,42.94 -47.99,52.03 -69.62,30.4 -16.41,-16.41 -15.03,-37.85 2.44,-37.85 7.92,0 33.7,-20.64 57.28,-45.86 56,-59.87 86.84,-81.24 150.17,-104.03 83.74,-30.14 97.89,-21.18 23.72,15.01 z m -1061.86,51.97 c 42.25,22.56 138.84,103.95 138.84,116.99 0,13.79 -21.82,2.75 -81.1,-41.02 -34.85,-25.73 -89.14,-59.32 -120.65,-74.64 -31.5,-15.32 -57.28,-30.34 -57.28,-33.37 0,-11.61 76.76,8.85 120.19,32.04 z m 1224.76,-12.54 c 0,2.3 -23.53,11.88 -52.3,21.3 -64.54,21.13 -138.42,57.6 -194.36,95.95 -39.42,27.02 -62.18,29.81 -62.18,7.6 0,-11.64 109.36,-62.84 214.2,-100.29 79.82,-28.52 94.64,-32.36 94.64,-24.56 z M 3449,6021.56 c 15.38,10.04 44.4,13.59 95.74,11.71 l 73.67,-2.7 30.13,42.75 c 37.94,53.83 121.42,99.24 163.08,88.72 15.44,-3.91 67.61,-14.2 115.95,-22.88 81.52,-14.63 93.04,-14.54 159.4,1.34 39.33,9.4 82.73,23.86 96.43,32.11 l 24.9,15 -29.88,-7.43 c -42.46,-10.55 -224.16,-12.3 -224.16,-2.16 0,4.65 26.71,8.45 59.36,8.45 73.32,0 209.63,19.58 209.63,30.12 0,20.67 -155.64,138.16 -318.8,240.67 -193.38,121.49 -473.65,197.42 -728.78,197.44 -122.26,0.02 -306.83,-23.95 -400.48,-52.02 l -39.75,-11.9 29.09,-12.42 29.08,-12.41 -36.54,-0.45 c -20.11,-0.24 -43.64,-3.17 -52.31,-6.49 -27.08,-10.39 -17.24,-20.54 16.62,-17.16 32.07,3.2 32.14,3.11 7.43,-9.19 -48.45,-24.14 -53.33,-28.99 -38.46,-38.18 7.38,-4.56 23.59,-5.75 36,-2.63 26.88,6.74 68.13,-17.69 76.99,-45.61 14.61,-46.05 136.91,-70.84 149.76,-30.36 10.16,32.02 48.78,51.42 96.51,48.48 28.34,-1.74 52.27,3.5 70.49,15.44 26.85,17.59 29.31,17.49 92.22,-3.76 35.54,-12.01 76.68,-28.09 91.43,-35.74 19.93,-10.34 30.22,-11.05 40.2,-2.78 9.18,7.62 16.62,7.9 23.64,0.87 15.91,-15.9 -37.76,-52.66 -76.88,-52.66 -51.75,0 -32.03,-24.9 30.88,-38.97 39.32,-8.8 52.3,-15.81 48.35,-26.11 -5.24,-13.67 -65.52,-31.06 -90.65,-26.15 -26.76,5.23 -10.44,-9.37 27.4,-24.5 21.92,-8.78 39.85,-22.19 39.85,-29.81 0,-15.05 -0.71,-15.32 -44.84,-17.42 -19.29,-0.92 -29.88,-6.72 -29.88,-16.37 0,-10.81 9.15,-14.22 33.09,-12.32 29.28,2.32 32.71,0.03 29.88,-19.92 -1.75,-12.41 -13.29,-26.98 -25.61,-32.39 -31.22,-13.7 -27.96,-34.64 7.47,-48.01 34.21,-12.91 37.21,-21.58 12.45,-36 -15.11,-8.8 -14.01,-10.2 8.23,-10.46 15.12,-0.18 35.58,10.36 49.81,25.66 35.87,38.56 58.4,43.64 124.54,28.08 83.61,-19.66 91.5,-18.7 66.98,8.22 -48.57,53.33 -51.89,110.13 -9.58,163.91 20.18,25.65 20.24,26.41 1.36,18.56 -39.53,-16.46 -66.01,-17.76 -110.12,-5.41 -37.04,10.37 -44.52,16.34 -42.06,33.59 2.88,20.14 7.43,20.84 112.59,17.42 99.55,-3.24 123.77,-9.46 124.38,-31.95 0.07,-3.09 -15.54,-13.11 -34.72,-22.26 -19.18,-9.14 -34.87,-22.07 -34.87,-28.74 0,-9.42 2.66,-9.46 11.95,-0.16 17.73,17.73 84.82,14.08 151.49,-8.22 32.36,-10.82 81.67,-19.3 109.59,-18.84 l 50.76,0.82 -84.69,28.78 c -46.57,15.82 -94.5,28.9 -106.51,29.06 -12,0.15 -24.6,4.76 -27.98,10.24 -9.75,15.77 17.96,11.92 122.09,-16.99 53.39,-14.82 111.77,-26.81 129.72,-26.64 40.58,0.39 37.06,-15.48 -8.45,-38.08 -28.84,-14.32 -30.66,-17.03 -11.73,-17.44 12.33,-0.26 22.42,-5.32 22.42,-11.25 0,-14.26 -80.85,-3.33 -128.5,17.37 -19.74,8.57 -44.85,16.92 -55.81,18.54 -10.96,1.63 -41.48,8.85 -67.83,16.04 -41.04,11.21 -51.71,10.94 -74.57,-1.9 -55.95,-31.4 -58.52,-89.31 -5.51,-124.05 26.15,-17.13 30.59,-39.84 9.38,-47.98 -7.69,-2.95 -40.2,0.89 -72.23,8.55 -86.85,20.75 -108.38,18.49 -142.57,-14.93 -16.63,-16.26 -30.23,-34.19 -30.23,-39.85 0,-15.19 47.11,-12.52 72.57,4.11 z m -393.86,480.36 c -2.6,4.59 -7.94,21.79 -11.86,38.23 -3.93,16.44 -14.3,37.84 -23.06,47.56 -26.82,29.75 -1.96,43.43 48.6,26.75 39.61,-13.07 42.41,-12.66 56.3,8.27 18.22,27.42 47.92,28.43 62.01,2.1 11.19,-20.89 53.94,-27.47 64.76,-9.96 8.15,13.18 41.93,12.76 50.2,-0.63 3.6,-5.83 -0.23,-18.15 -8.52,-27.4 -8.29,-9.24 -19.18,-32.5 -24.2,-51.67 -7.69,-29.4 -12.91,-34.31 -33.23,-31.26 -43.81,6.57 -133.33,5 -154.98,-2.73 -11.71,-4.18 -23.42,-3.85 -26.02,0.74 z m 181.81,27.88 c 0,11.59 -80.49,24.56 -110.73,17.84 -31.28,-6.95 -29.38,-7.91 26.05,-13.29 32.87,-3.19 65.37,-6.55 72.23,-7.47 6.84,-0.92 12.45,0.39 12.45,2.92 z m -79.7,37.55 c 25.74,0 56.17,-2.97 67.62,-6.61 15.53,-4.93 23.93,-0.79 33.03,16.29 10.83,20.34 10.45,21.45 -3.42,10.01 -19.09,-15.74 -66.88,-6.46 -85.36,16.57 -12.03,15.01 -13.73,15 -22.27,-0.06 -5.09,-8.96 -25,-19.26 -44.26,-22.87 -19.25,-3.61 -35.01,-11.15 -35.01,-16.75 0,-5.89 9.04,-7.31 21.44,-3.38 11.78,3.74 42.49,6.8 68.23,6.8 z m -361.15,-30.22 c 35.94,12.08 41.38,23.68 14.95,31.85 -9.59,2.97 9.4,3.13 42.2,0.37 108.86,-9.17 92.14,-25.24 -39.71,-38.21 -46.22,-4.54 -47.48,-4.1 -17.44,5.99 z m -274.01,-478.79 c 34.27,11.72 83.45,31.89 109.3,44.83 65.03,32.56 98.2,30.15 157.34,-11.41 63.45,-44.6 66.95,-23.94 7.82,46.17 -49.35,58.53 -57.35,58.45 -157.36,-1.43 -43.03,-25.75 -99.87,-47.71 -169.37,-65.4 -57.53,-14.65 -106.47,-28.31 -108.75,-30.35 -15.1,-13.5 110.1,0.18 161.02,17.59 z m 443.45,18.55 c 53.98,50.84 90.87,53.31 131.54,8.78 15.6,-17.08 33.36,-27.98 39.45,-24.22 6.09,3.77 8.51,11 5.37,16.08 -3.13,5.08 5.76,14.45 19.77,20.84 31.91,14.54 32.03,22.14 0.56,36.48 -31.66,14.42 -31.82,29.58 -0.41,37.47 30.64,7.69 55.52,33.84 28.36,29.81 -19.41,-2.88 -52.86,14.1 -52.86,26.84 0,4.3 11.21,12.07 24.91,17.28 26.3,10 32.04,24.3 14.19,35.33 -6.85,4.24 -3.26,13.56 9.96,25.88 11.38,10.6 20.68,23.58 20.68,28.84 0,20.24 -35.99,8.43 -59.77,-19.62 -18.7,-22.04 -36.95,-31.08 -73.21,-36.23 -43.74,-6.22 -47.97,-5.1 -44.8,11.84 1.92,10.3 18.4,26.17 36.63,35.28 18.23,9.11 35.66,19.08 38.74,22.16 8.37,8.38 -87.9,47.35 -106.06,42.94 -10.66,-2.59 -6.12,-7.82 14.2,-16.33 16.44,-6.88 35.36,-13.44 42.05,-14.56 6.69,-1.12 15.07,-4.94 18.61,-8.49 12.2,-12.2 -46.16,-19.62 -100.69,-12.8 -53.91,6.73 -54.62,6.49 -54.62,-19.05 0,-27.77 -29.17,-45.3 -75.37,-45.3 -30.24,0 -31.07,-12.97 -2.08,-32.22 19.72,-13.1 22.29,-23.64 23.16,-95.22 1.49,-121.54 28.58,-140.68 101.69,-71.81 z m 1164.07,-17.27 c 4.01,4.02 -43.89,7.36 -106.44,7.42 -66.76,0.07 -135.9,6.01 -167.38,14.39 -29.5,7.86 -77.29,17.23 -106.19,20.85 -45.95,5.74 -53.89,4.09 -63.08,-13.09 -5.78,-10.81 -7.68,-22.48 -4.22,-25.94 9.87,-9.87 41.35,-7.38 60.9,4.83 13.43,8.39 46.59,6.52 135.16,-7.63 112.13,-17.92 233.76,-18.32 251.25,-0.83 z m -1291.32,128.53 c 0.11,19.53 -8.76,32.1 -33.4,47.32 -45.16,27.92 -55.65,26.51 -109.55,-14.64 -25.48,-19.46 -60.87,-41.7 -78.64,-49.42 -17.77,-7.73 -25,-14.22 -16.08,-14.43 8.93,-0.22 41.38,11.12 72.11,25.19 70.25,32.15 104.3,29.08 130.71,-11.81 21.81,-33.77 34.59,-27.24 34.85,17.79 z m -125.67,71.53 c 28.12,14.59 24.83,26.42 -7.35,26.42 -33.99,0 -4.68,17.46 38.53,22.94 108.04,13.71 151.68,58.76 70.15,72.42 -22.98,3.86 -54.72,19.41 -73.93,36.22 -23.29,20.39 -40.18,27.73 -54.79,23.8 -11.62,-3.12 -26.74,-5.73 -33.59,-5.8 -20.42,-0.23 -15.27,-84.7 7.44,-121.94 10.94,-17.94 19.9,-40.47 19.92,-50.06 0.04,-20.94 0.8,-21.02 33.62,-4 z m -217.91,93.67 c 7.57,23.29 10.26,42.34 6,42.34 -13.96,0 -30.91,-49.96 -29.73,-87.64 0.64,-20.29 3.14,-27.93 5.57,-16.97 2.42,10.96 10.6,38.98 18.16,62.27 z m 378.21,-53.83 c 31.71,23.19 -0.76,28.92 -41.64,7.34 l -37.67,-19.88 30.48,-0.44 c 16.76,-0.24 38.73,5.6 48.83,12.98 z m 240.08,11.17 c 26.08,19.72 -1.08,19.97 -35.45,0.32 -22.77,-13.02 -23.15,-14.27 -4.4,-14.59 11.28,-0.2 29.21,6.22 39.85,14.27 z m 427.01,-5.73 c 15.36,6.02 10.12,10.01 -26.61,20.3 -44.02,12.32 -67.24,9.15 -67.24,-9.17 0,-15.51 63.47,-23.04 93.85,-11.13 z m -928.49,73.29 c -2.32,26.03 -8.46,47.33 -13.64,47.33 -5.33,0 -6.72,-16.18 -3.2,-37.36 13.03,-78.43 23.52,-84.63 16.84,-9.97 z m -186.64,21.61 c 21.27,23.21 27.57,35.68 18.04,35.68 -8.06,0 -28.54,-15.69 -45.52,-34.87 -16.97,-19.18 -38.74,-34.87 -48.37,-34.87 -9.63,0 -19.98,-4 -23.01,-8.9 -3.18,-5.15 9.58,-5.49 30.34,-0.81 21.44,4.83 48.97,22.41 68.52,43.77 z m 538.1,-34.06 c -3.39,5.48 -19.35,9.97 -35.46,9.97 -16.12,0 -29.3,-4.49 -29.3,-9.97 0,-5.48 15.96,-9.96 35.46,-9.96 21.1,0 32.96,4.03 29.3,9.96 z m -585.09,47.97 c 2.29,6.87 -11.56,2.98 -31.7,-8.91 -19.67,-11.61 -35.77,-22.91 -35.77,-25.13 0,-9.27 63.75,22.89 67.47,34.04 z m 758.1,-24.66 c 8.75,10.53 0.09,19.07 -41.12,40.6 -43.75,22.84 -56.63,25.56 -79.59,16.79 -15.07,-5.76 -27.4,-15.06 -27.4,-20.68 0,-5.61 12.33,-10.39 27.4,-10.62 15.07,-0.23 43.09,-9.01 62.27,-19.51 42.27,-23.15 44.49,-23.4 58.44,-6.58 z m -347.51,33.98 c -0.28,13.41 -14.38,29.17 -36.55,40.85 -26.69,14.04 -33.04,14.33 -33.04,1.49 0,-5.48 5.65,-9.97 12.55,-9.97 6.9,0 18.15,-8.96 24.99,-19.92 12.16,-19.47 32.35,-27.32 32.05,-12.45 z m -201.2,31.43 c 58.35,29.95 101.07,120.78 49.42,105.05 -42.38,-12.89 -164.11,-71.65 -170.77,-82.42 -7.42,-12 38.75,-40.59 66.56,-41.21 9.81,-0.22 34.46,8.14 54.79,18.58 z m 91.76,5.34 c 0,10.52 -19.12,14.93 -24.81,5.73 -3.44,-5.57 0.73,-10.13 9.28,-10.13 8.54,0 15.53,1.98 15.53,4.4 z M 1945.72,3549.24 c -17.34,18.99 -55.04,49.64 -100.84,81.97 -48.66,34.34 -51.03,43.2 -19.49,72.83 30.82,28.96 39.53,27.29 32.18,-6.17 -4.79,-21.83 -0.5,-33.1 19.89,-52.26 l 26,-24.42 28.9,34.82 28.91,34.82 -21.29,17.83 c -14.74,12.35 -24.48,14.65 -31.65,7.48 -14.05,-14.05 -26.37,-13.06 -25.99,2.09 0.41,16.04 45.33,67.25 58.99,67.25 5.74,0 10.44,-10.66 10.44,-23.69 0,-13.03 6.69,-29.25 14.89,-36.04 12.22,-10.15 18.48,-8.14 35.03,11.23 40.49,47.4 41.75,55.43 12.32,78.58 -20.06,15.78 -36.02,20.13 -59.75,16.28 -22.21,-3.61 -32.38,-1.31 -32.38,7.32 0,13.39 40.9,55.91 53.78,55.91 4.22,0 30.83,-22.06 59.14,-49.01 28.3,-26.95 63.79,-58.66 78.86,-70.46 31.51,-24.68 35.2,-39.94 9.66,-39.94 -29.79,0 -151.63,-142.91 -151.63,-177.86 0,-23.76 -9.29,-26.82 -25.97,-8.56 z m 2337.06,142.24 c -24.24,63.75 -2.67,96.68 60.38,92.18 42.2,-3 44.94,-5.06 53.66,-40.34 12.33,-49.94 -11,-77.39 -65.77,-77.39 -32.22,0 -40.15,4.19 -48.27,25.55 z m 279.92,150.14 c -11.36,14.43 -20.65,32.36 -20.65,39.84 0,16.54 31.5,17.98 47.31,2.16 15.61,-15.6 62.28,15.04 62.28,40.89 0,28.95 -31.98,33 -84.13,10.64 -54.31,-23.27 -65.32,-24.27 -99.03,-8.9 -32.06,14.61 -50.03,59.17 -42.73,105.97 6.74,43.19 74.82,111.91 110.87,111.91 27.79,0 69.73,-43.59 61.8,-64.25 -7.34,-19.14 -20.72,-19.54 -49.24,-1.47 -14.83,9.39 -29.32,11.17 -44.19,5.41 -26.39,-10.22 -39.87,-53.5 -23,-73.84 10.29,-12.39 18.61,-11.7 61.26,5.11 67.68,26.68 103.73,25.02 134.96,-6.21 21.91,-21.91 24.85,-31.74 20.09,-67.19 -4.37,-32.6 -15.21,-50.65 -50.44,-83.93 -24.68,-23.31 -49.29,-42.39 -54.69,-42.39 -5.4,0 -19.11,11.81 -30.47,26.25 z m -2835.54,28.09 c -45.38,45.38 -21.03,105.06 42.86,105.06 37.22,0 62.19,-22.47 62.19,-55.96 0,-27.62 -40.44,-73.56 -64.75,-73.56 -8.72,0 -26.85,11.01 -40.3,24.46 z m -256.09,219.33 c -31.51,57.03 -57.28,108.33 -57.28,114 0,5.67 13.76,17.44 30.59,26.14 l 30.59,15.82 -6.82,-45.45 c -8.99,-59.93 1.76,-59.43 109.28,5.05 58.95,35.36 85.14,57.03 87.31,72.23 4.9,34.43 17.53,25.86 51.27,-34.78 30.63,-55.04 31.83,-83.12 2.51,-58.8 -17.12,14.22 -27.22,9.7 -127.9,-57.16 -36.98,-24.56 -67.24,-51.11 -67.24,-59 0,-7.89 13.44,-19.43 29.88,-25.63 36.58,-13.81 38.17,-29.83 4.51,-45.17 -13.95,-6.36 -26.28,-11.42 -27.39,-11.25 -1.11,0.18 -27.8,46.98 -59.31,104 z m 3280.92,91.3 c -11.35,14.44 -20.65,32.89 -20.65,40.99 0,11.86 -9.2,13.44 -47.32,8.08 -26.03,-3.66 -62.19,-11.34 -80.37,-17.07 -18.17,-5.73 -35.79,-7.67 -39.14,-4.32 -9.1,9.09 25.04,75.37 39.65,76.98 6.94,0.76 28.34,2.25 47.57,3.3 49.41,2.7 89.57,13.97 89.57,25.13 0,11.55 -52.75,39.92 -74.22,39.92 -8.49,0 -15.44,-4.49 -15.44,-9.96 0,-5.48 -4.48,-9.97 -9.96,-9.97 -15.24,0 -12.03,22.26 11.29,78.38 20.68,49.75 48.49,68.99 48.49,33.55 0,-12.68 26.64,-29.26 95.41,-59.38 79.01,-34.61 98.63,-39.78 114.12,-30.11 10.28,6.42 21.05,9.33 23.91,6.46 7.75,-7.74 -60.01,-159.84 -82.78,-185.81 -27.67,-31.57 -73.67,-29.81 -100.13,3.83 z m 96.91,55.45 c 20.87,20.87 13.04,38.42 -24.08,53.93 -40.71,17.01 -63.59,12.52 -63.59,-12.49 0,-41.18 59.71,-69.4 87.67,-41.44 z m -3245.83,147.44 c -13.69,4.39 -79.82,8.43 -146.95,8.98 -115.84,0.94 -122.04,2.02 -122.04,21.3 0,12.47 36.51,56.22 94.65,113.42 52.06,51.22 94.65,100.36 94.65,109.21 0,31.5 26.91,15.42 39.86,-23.81 14.13,-42.81 8.83,-59.54 -13.1,-41.35 -10.48,8.7 -18.51,5.99 -35.29,-11.87 -20.65,-21.98 -20.97,-24.94 -6.47,-59.65 12.74,-30.5 20.17,-36.52 45.01,-36.52 23.52,0 29.76,4.35 29.76,20.75 0,35.5 22.74,15.31 40.91,-36.31 27.15,-77.14 26.44,-79.33 -20.99,-64.15 z m -119.7,92.16 c -0.08,6.85 -4.43,19.18 -9.66,27.4 -8.01,12.61 -13.78,10.67 -36.98,-12.45 l -27.47,-27.4 37.13,0 c 23.15,0 37.07,4.69 36.98,12.45 z m 3447.52,7.08 c -8.07,5.1 -12.55,10.64 -9.97,12.3 2.58,1.67 13.66,7.98 24.62,14.03 24.15,13.33 42.85,59.84 29.34,72.97 -5.18,5.02 -26.23,12.22 -46.77,16 -36.64,6.73 -37.36,6.26 -37.36,-24.13 0,-17.05 4.48,-31 9.96,-31 5.48,0 9.96,-7.25 9.96,-16.11 0,-11.95 -5.78,-14.46 -22.42,-9.72 -12.32,3.51 -34.74,9.08 -49.81,12.37 -31.14,6.8 -35.76,20.96 -9.96,30.48 48.01,17.72 42.63,55.83 -9.87,69.84 -23.25,6.2 -43.56,9.98 -45.15,8.39 -1.58,-1.58 -6.82,-16.63 -11.64,-33.44 -6.76,-23.54 -4.26,-38.97 10.86,-67.18 10.79,-20.14 17.28,-38.97 14.41,-41.84 -2.87,-2.87 -21.34,2.44 -41.04,11.78 -23.6,11.2 -34.72,22.7 -32.59,33.69 14.85,76.83 54.29,220.85 60.47,220.88 4.25,0.02 11.61,-10.18 16.35,-22.67 6.86,-18.03 23.72,-26.39 81.95,-40.63 40.32,-9.85 83.98,-22.22 97.02,-27.48 18.04,-7.27 28.11,-5.57 42.13,7.11 27.57,24.96 33.47,-1.38 15.02,-67.06 -8.26,-29.41 -19.92,-72.52 -25.91,-95.81 -8.7,-33.85 -15.3,-42.31 -32.92,-42.19 -12.12,0.08 -28.62,4.33 -36.68,9.42 z m -3662.37,127.42 c -3.4,15.06 -10.41,44.31 -15.58,64.99 -11.18,44.64 -1.71,68.54 17.01,42.94 11.47,-15.69 18.47,-13.18 83.28,29.92 38.91,25.87 68.74,49.06 66.28,51.53 -4.09,4.08 -141.07,32.25 -156.98,32.27 -3.74,0.01 -9.8,-9.4 -13.45,-20.92 -9.03,-28.45 -21.12,-12.68 -29.42,38.37 -6.95,42.78 0.59,52.56 23.14,30.02 6.77,-6.78 71.56,-23.9 143.95,-38.05 123.68,-24.17 131.64,-27.12 131.64,-48.85 0,-18.15 -22.36,-38.5 -103.85,-94.54 -57.13,-39.27 -108.25,-81.23 -113.61,-93.24 -13.16,-29.51 -24.97,-27.48 -32.41,5.56 z m 3756.11,132.92 c -10.62,11.6 -64.15,50.87 -118.94,87.29 -80.71,53.64 -100.22,71.35 -102.74,93.26 -2.62,22.69 1.4,28 24.9,32.93 108.02,22.64 239.23,60.14 250.75,71.66 7.58,7.57 15.94,11.6 18.58,8.96 5.81,-5.81 -18.3,-145.58 -25.11,-145.58 -2.63,0 -9.76,6.75 -15.84,14.99 -9.85,13.34 -19.63,13.34 -89.15,0 -42.95,-8.24 -81.06,-15 -84.68,-15.01 -3.63,-0.01 27.03,-22.04 68.12,-48.96 62.09,-40.67 76.59,-46.56 85.78,-34.85 22.13,28.2 34.27,15.79 27.64,-28.25 -8.3,-55.08 -15.83,-62.07 -39.31,-36.44 z m -3810.1,318.34 c 0,92.97 1.74,101.81 24.45,124.53 30.91,30.9 55.99,30.93 92.63,0.1 l 28.94,-24.35 56.5,40.09 c 31.08,22.04 56.51,44.21 56.51,49.25 0,5.05 6.73,9.18 14.94,9.18 16.05,0 18.56,-19.29 8.85,-67.86 -4.86,-24.31 -16.98,-36.18 -59.75,-58.53 -67.47,-35.25 -73.42,-62.9 -13.54,-62.9 26.51,0 42.11,5.08 45.9,14.94 12.9,33.61 23.52,11.1 23.52,-49.81 0,-61.58 -10.65,-83.36 -23.89,-48.86 -5.3,13.83 -20.05,14.96 -113.14,8.73 -74.23,-4.97 -109.49,-11.37 -115.02,-20.88 -19.09,-32.86 -26.9,-7.8 -26.9,86.37 z m 129.52,34.65 c 0,23.92 -24.78,44.6 -53.43,44.6 -20.69,0 -46.2,-27.59 -46.2,-49.95 0,-14.8 8.73,-19.29 42.34,-21.78 53.4,-3.95 57.29,-2.11 57.29,27.13 z m 3473.83,36.7 c -6.52,77.72 -2.47,92.47 17.78,64.77 11.84,-16.19 22.65,-17 119.05,-8.93 86.09,7.21 108.63,12.44 119.84,27.78 7.6,10.39 15.81,16.66 18.25,13.92 2.44,-2.73 7.41,-35.22 11.06,-72.21 5.37,-54.58 3.95,-67.25 -7.54,-67.25 -7.78,0 -16.86,7.05 -20.16,15.67 -4.86,12.64 -16.61,14.56 -60.84,9.96 -30.16,-3.14 -79.04,-8.21 -108.62,-11.27 -42.15,-4.37 -54.88,-9.76 -58.84,-24.91 -10.58,-40.44 -24.19,-16.62 -29.98,52.47 z m -3335.32,197.12 c -10.99,16.35 -34.77,24.24 -111.13,36.88 -93.7,15.5 -97.89,15.4 -118.36,-2.9 l -21.23,-18.97 7.16,69.74 c 8.38,81.59 16.52,94.66 38.26,61.48 13.94,-21.28 28.27,-25.81 117.92,-37.23 78.26,-9.98 102.97,-10.25 105.99,-1.19 2.17,6.49 8.27,11.81 13.56,11.81 10.79,0 0.89,-119.45 -10.96,-132.47 -3.98,-4.37 -13.52,1.42 -21.21,12.85 z m 3318.52,0.55 c 0,11.23 38.11,67.44 84.69,124.9 46.57,57.48 84.68,106.46 84.68,108.86 0,2.4 -11.5,0 -25.56,-5.35 -14.05,-5.34 -35.35,-9.74 -47.32,-9.77 -47.95,-0.12 -96.49,-20.38 -96.49,-40.26 0,-10.71 -6.15,-19.46 -13.66,-19.46 -8.91,0 -16.01,17.72 -20.42,50.98 -7.19,54.16 -0.51,74.5 15.22,46.38 10.37,-18.52 15.85,-18.18 146.1,9.1 50.38,10.56 75.51,20.93 82.54,34.06 17.09,31.95 27.6,21.24 34.67,-35.35 7.43,-59.49 2.93,-69.23 -76.93,-166.33 -20.9,-25.42 -38,-48.33 -38,-50.92 0,-2.58 25.78,0.41 57.28,6.66 43.26,8.58 59.69,16.78 67.12,33.48 14.69,33.05 21.64,27.16 28.7,-24.33 7.14,-52.14 2.75,-62.1 -20.81,-47.23 -15.94,10.05 -24.33,8.96 -190.94,-24.92 -70.4,-14.31 -70.87,-14.25 -70.87,9.5 z m -3277.57,208.48 c -7.24,13.53 -43.92,30.07 -117.42,52.96 -95.82,29.84 -106.88,35.69 -106.88,56.53 0,19.54 10.33,27.02 64.76,46.93 35.62,13.02 73.73,27.74 84.68,32.71 10.96,4.96 37.16,16.76 58.22,26.22 44.62,20.04 40.69,23.89 -54.48,53.51 -56.45,17.57 -64.48,18.01 -79.6,4.33 -25.16,-22.77 -30.38,-2.34 -12.68,49.61 15.27,44.82 33.75,53.8 33.75,16.41 0,-13.93 15.45,-23.54 62.26,-38.72 115.72,-37.53 147.19,-43.45 162.66,-30.62 18.36,15.24 18.99,-5.47 1.84,-60.41 -9.35,-29.95 -19.63,-42.02 -42.34,-49.71 -53.71,-18.19 -153.99,-64.69 -154.26,-71.52 -0.15,-3.67 22.89,-14.37 51.21,-23.77 41.27,-13.71 55.29,-14.72 70.71,-5.1 26.74,16.7 30.26,9.03 17.56,-38.18 -12.11,-44.94 -23.93,-51.2 -39.99,-21.18 z m 3472.97,156.87 c -3.94,3.94 -63.35,6 -132.01,4.57 -136.59,-2.84 -163.01,1.32 -163.01,25.71 0,8.91 44.83,61.76 99.62,117.44 54.8,55.68 99.63,106.37 99.63,112.65 0,6.27 3.36,11.33 7.47,11.23 8.58,-0.19 52.46,-98.14 52.36,-116.89 -0.07,-14.67 -12.11,-16.21 -25.46,-3.27 -5.86,5.69 -31.71,-11.62 -67.83,-45.4 -32.11,-30.03 -56.77,-56.14 -54.8,-58.02 5.81,-5.58 39.62,-7.75 101.64,-6.53 49.32,0.97 59.02,4.19 63.43,21.07 7.52,28.76 19.26,24.54 31.8,-11.45 17.16,-49.22 10.75,-74.71 -12.84,-51.11 z m -3403.43,231.67 c -108.86,31.38 -148.23,114.08 -99.66,209.29 42.31,82.92 119.46,110.68 197.25,70.98 58.54,-29.87 75.11,-54.55 79.58,-118.5 3.32,-47.37 0.08,-62.6 -19.31,-90.86 -41.52,-60.49 -101.12,-87.27 -157.86,-70.91 z m 125.19,84.45 c 21.56,32.9 12.08,56.79 -41.15,103.63 -65.12,57.32 -122.86,61.46 -149.13,10.67 -13.45,-26.01 -13.44,-32.26 0.09,-58.42 20.22,-39.11 90.24,-80.09 137.06,-80.2 28.48,-0.07 40.86,5.59 53.13,24.32 z m 2975.47,-68.69 c -15.54,10.89 -22.14,25.67 -22.14,49.59 0,75.23 106.28,85.9 124.7,12.52 5.25,-20.92 1.14,-32.38 -18.69,-52.21 -29.19,-29.19 -52.42,-31.93 -83.87,-9.9 z m -225.43,213.82 c -36.14,49.42 -65.7,94.25 -65.7,99.63 0,12.5 16.93,12.71 24.6,0.3 11.17,-18.08 184.61,113.62 184.61,140.19 0,28.52 12.34,22.79 50.8,-23.62 53.62,-64.68 56.31,-71.28 25.98,-63.67 -29.09,7.3 -80.74,-23.12 -156.94,-92.41 l -44.37,-40.35 33.44,-30.86 c 24.69,-22.79 39.53,-29.34 56.68,-25.04 37.05,9.3 37.6,-10.57 0.92,-33.24 -18.49,-11.43 -36.03,-20.78 -38.97,-20.78 -2.95,0 -34.92,40.44 -71.05,89.85 z m -2609.5,6.46 c -3.65,3.65 -6.64,14.29 -6.64,23.64 0,29.62 -141.23,149.04 -176.26,149.04 -12.65,0 -22.99,3.37 -22.99,7.48 0,4.11 30.34,39.97 67.4,79.7 55.46,59.43 72.83,72.23 98.08,72.23 39.63,0 63.66,-27.17 63.66,-71.98 l 0,-35.54 79.7,-7.05 c 83.58,-7.4 95.93,-17.1 61.48,-48.27 -21.44,-19.41 -46.28,-20.6 -107.53,-5.18 -34.48,8.68 -47.65,8.5 -56.72,-0.75 -15.72,-16.05 40.08,-62.63 65.41,-54.6 36.17,11.47 12.17,-36.3 -56.71,-112.87 -1.23,-1.37 -5.22,0.49 -8.88,4.15 z m -16.6,210.62 c 0,17.58 -38.08,61.69 -53.26,61.69 -5.46,0 -18.37,-7.64 -28.69,-16.98 -18.19,-16.46 -17.61,-17.95 19.14,-48.88 38.68,-32.57 62.81,-30.96 62.81,4.17 z m 2428.39,-4.04 c -50.89,46.93 -58.38,60.98 -28.35,53.13 13.3,-3.48 32.11,8.83 62.9,41.18 84.63,88.88 106.09,118.83 100.49,140.23 -7.67,29.32 2.05,25.78 57.44,-20.93 51.58,-43.49 62.5,-64.04 29.42,-55.39 -15.24,3.99 -35.48,-13.46 -89.66,-77.27 -38.9,-45.82 -69.97,-91.83 -69.97,-103.62 0,-29.93 -8.65,-26.78 -62.27,22.67 z m -2234.12,155.84 c -60.27,37.49 -120.26,68.42 -133.31,68.73 -20.77,0.49 -17.42,5.58 26.99,40.93 56.91,45.31 66.47,47.94 66.47,18.3 0,-14.15 14.11,-28.49 44.83,-45.52 24.66,-13.68 54.92,-31.31 67.25,-39.17 24.81,-15.81 26.92,-10.6 12.94,32.01 -5.21,15.88 -14.35,47.93 -20.31,71.22 -8.12,31.74 -15.73,42.34 -30.38,42.34 -10.74,0 -19.54,4.18 -19.54,9.29 0,8.51 51.9,50.49 62.42,50.49 2.5,0 7.11,-21.3 10.24,-47.32 3.13,-26.03 17.57,-88.6 32.09,-139.04 27.88,-96.87 28.96,-126.22 4.73,-128.84 -8.16,-0.87 -64.15,29.08 -124.42,66.58 z m 2072.23,-13.95 c -130.55,68.09 -163.32,136.91 -109.2,229.26 57.07,97.38 167.69,99.58 266.11,5.28 43.73,-41.89 45.25,-51.35 14.09,-87.58 -28.78,-33.45 -46.47,-24.55 -42.04,21.14 2.81,28.97 -2.16,39.38 -30.77,64.51 -39.34,34.54 -45.68,35.62 -82.17,14.07 -65.52,-38.7 -95.96,-139.06 -55.68,-183.57 23.73,-26.23 38.98,-24.86 58.73,5.29 12.28,18.73 13.81,29.83 6.11,44.23 -16.98,31.72 4.8,32.09 44.25,0.75 20.31,-16.14 45.5,-32.07 55.98,-35.4 24.82,-7.88 24.57,-24.63 -0.37,-24.63 -10.68,0 -31.39,-15.69 -46.02,-34.87 -29.78,-39.05 -36.55,-40.63 -79.02,-18.48 z m -1788.29,83.24 c 0,5.48 4.48,9.97 9.96,9.97 12.5,0 12.88,24.68 0.72,47.45 -5.07,9.52 -23.26,48.61 -40.41,86.89 -17.16,38.27 -38.26,77.39 -46.91,86.95 -14.62,16.15 -12.37,18.8 32.25,37.92 l 47.96,20.56 55.79,-55.2 c 30.68,-30.37 58.59,-55.21 62.02,-55.21 3.44,0 3.82,35.39 0.85,78.64 l -5.39,78.63 47.45,20.99 c 26.1,11.55 48.68,20.99 50.18,20.99 1.5,0 2.56,-14.57 2.36,-32.38 -0.49,-42.26 69.88,-188.09 93.78,-194.34 30.32,-7.92 20.79,-19.68 -37.7,-46.45 -59.19,-27.1 -80.34,-26.15 -62.26,2.78 8.7,13.93 4.65,30.96 -19.43,81.73 l -30.43,64.13 -0.7,-102.12 c -0.87,-127.47 -7.52,-129.42 -101.83,-29.89 l -68.44,72.23 20.71,-54.79 c 26.26,-69.47 45.76,-99.63 64.42,-99.63 27.09,0 15.09,-19.5 -21.38,-34.73 -42.26,-17.66 -53.57,-18.74 -53.57,-5.12 z m 1484.43,68.22 c -57.5,21.38 -71.45,30.55 -64.23,42.22 3.2,5.19 9.5,7.17 13.98,4.41 12.07,-7.47 23.29,11.19 59.31,98.71 22.01,53.5 30.73,88.14 26.93,107.1 -6.75,33.76 -6.71,33.76 65.73,5.67 58.34,-22.62 73.57,-37.41 38.53,-37.41 -26.92,0 -99.11,-183.07 -82.62,-209.49 10.14,-16.24 6.6,-30.78 -6.99,-28.75 -3.19,0.48 -25.98,8.37 -50.64,17.54 z m -285.2,99.8 c -51.06,23.84 -56.16,31.99 -47.83,76.4 7.82,41.68 37.01,44.81 42.53,4.55 4.89,-35.66 30.2,-59.68 62.9,-59.68 45.74,0 38.4,40.25 -15.38,84.31 -46,37.7 -58.15,66.69 -43.99,104.98 18.35,49.6 74.46,62.8 152.12,35.77 46.12,-16.06 51.53,-26.27 35.01,-66.16 -14.78,-35.7 -39.64,-38.96 -39.64,-5.19 0,50.08 -70.89,77.27 -77.68,29.79 -2.12,-14.78 8.77,-28.86 37.95,-49.09 47.2,-32.7 59.66,-51.95 59.66,-92.17 0,-65.41 -88.72,-99.43 -165.65,-63.51 z m -774.77,14.29 c -27.89,20.39 -17.75,69.02 16.91,81.14 36.21,12.66 60.67,-2.3 65.08,-39.8 3.53,-29.94 -18.08,-54.28 -48.17,-54.28 -8.87,0 -24.09,5.82 -33.82,12.94 z m 352.62,42.5 c 0,1.05 7.01,18.69 15.59,39.21 l 15.59,37.31 -28.04,-4.8 c -15.43,-2.63 -35.15,-7.86 -43.82,-11.61 -13.4,-5.8 -15.77,2.23 -15.77,53.38 0,62.1 5.21,70.99 26.56,45.26 15,-18.07 59.8,-19.93 59.72,-2.49 -0.03,6.85 -6.76,25.3 -14.95,40.99 -8.18,15.7 -14.88,29.15 -14.88,29.89 0,0.74 29.14,1.35 64.76,1.35 35.61,0 64.61,-2.24 64.44,-4.98 -0.18,-2.74 -6.9,-13.68 -14.95,-24.32 -31.63,-41.83 1.98,-80.46 35.19,-40.44 24.5,29.52 34.87,16.18 34.87,-44.83 0,-39.6 -4.01,-59.78 -11.87,-59.78 -6.52,0 -14.63,4.49 -18.02,9.97 -3.39,5.48 -17.1,9.96 -30.48,9.96 -28.19,0 -31.63,-19.41 -9.45,-53.28 l 14.87,-22.68 -64.68,0 c -35.57,0 -64.68,0.85 -64.68,1.89 z m -412.74,109.65 c -21.64,21.64 -19.7,61.18 3.62,73.66 31.76,17 59,11.79 76.29,-14.6 15.12,-23.07 15.12,-26.73 0,-49.81 -18.76,-28.63 -56.19,-32.97 -79.91,-9.25"
         id="path2851"
         style="fill:#870c0d;fill-opacity:1;fill-rule:nonzero;stroke:none" /></g></g></svg>